<svg enable-background="new 0 0 487.4 450.9" viewBox="0 0 487.4 450.9" xmlns="http://www.w3.org/2000/svg" xmlns:xlink="http://www.w3.org/1999/xlink"><linearGradient id="a"><stop offset="0" stop-color="#508dd3"/><stop offset=".4" stop-color="#3761a9"/><stop offset="1" stop-color="#333486"/></linearGradient><radialGradient id="b" cx="208.665" cy="47.3098" gradientTransform="matrix(1 0 0 -1 0 451.8898)" gradientUnits="userSpaceOnUse" r="7.8641" xlink:href="#a"/><radialGradient id="c" cx="210.5" cy="45.6698" gradientTransform="matrix(1 0 0 -1 0 451.8898)" gradientUnits="userSpaceOnUse" r="23.65" xlink:href="#a"/><radialGradient id="d" cx="212.3032" cy="238.7666" gradientTransform="matrix(1 0 0 -1 0 451.8898)" gradientUnits="userSpaceOnUse" r="172.8301"><stop offset="0" stop-color="#fbf592"/><stop offset=".15" stop-color="#f5e272"/><stop offset=".43" stop-color="#e3aa29"/><stop offset="1" stop-color="#c8432d"/></radialGradient><linearGradient id="e"><stop offset="0" stop-color="#333486"/><stop offset=".61" stop-color="#508dd3"/><stop offset="1" stop-color="#b0d7f4"/></linearGradient><linearGradient id="f" gradientUnits="userSpaceOnUse" x1="101.8256" x2="358.8899" xlink:href="#e" y1="218.9604" y2="218.9604"/><linearGradient id="g" gradientTransform="matrix(1 0 0 -1 0 451.8898)" gradientUnits="userSpaceOnUse" x1="101.6692" x2="331.16" xlink:href="#e" y1="330.8686" y2="330.8686"/><linearGradient id="h" gradientTransform="matrix(1 0 0 -1 0 451.8898)" gradientUnits="userSpaceOnUse" x1="95.85" x2="327.95" xlink:href="#e" y1="338.469" y2="338.469"/><linearGradient id="i" gradientUnits="userSpaceOnUse" x1="94.965" x2="102.9" xlink:href="#e" y1="184.665" y2="184.665"/><linearGradient id="j" gradientUnits="userSpaceOnUse" x1="96.12" x2="132.65" xlink:href="#e" y1="288.62" y2="288.62"/><linearGradient id="k" gradientTransform="matrix(1 0 0 -1 0 451.8898)" gradientUnits="userSpaceOnUse" x1="178.3889" x2="187.56" xlink:href="#e" y1="131.7466" y2="131.7466"/><linearGradient id="l" gradientTransform="matrix(1 0 0 -1 0 451.8898)" gradientUnits="userSpaceOnUse" x1="178.69" x2="316.14" xlink:href="#e" y1="178.5954" y2="178.5954"/><linearGradient id="m" gradientTransform="matrix(1 0 0 -1 0 451.8898)" gradientUnits="userSpaceOnUse" x1="183.9934" x2="318.4766" xlink:href="#e" y1="168.61" y2="168.61"/><linearGradient id="n"><stop offset="0" stop-color="#b0d7f4"/><stop offset=".48" stop-color="#5ba0e5"/><stop offset="1" stop-color="#304591"/></linearGradient><radialGradient id="o" cx="66.48" cy="372.0722" gradientTransform="matrix(1 0 0 -1 0 451.8898)" gradientUnits="userSpaceOnUse" r="32.4375" xlink:href="#n"/><radialGradient id="p" cx="49.845" cy="374.2398" gradientTransform="matrix(1 0 0 -1 0 451.8898)" gradientUnits="userSpaceOnUse" r="22.8962" xlink:href="#n"/><radialGradient id="q" cx="84.44" cy="395.1584" gradientTransform="matrix(1 0 0 -1 0 451.8898)" gradientUnits="userSpaceOnUse" r="12.9636" xlink:href="#n"/><radialGradient id="r" cx="67.56" cy="371.7635" gradientTransform="matrix(1 0 0 -1 0 451.8898)" gradientUnits="userSpaceOnUse" r="32.2986" xlink:href="#n"/><linearGradient id="s" gradientTransform="matrix(1 0 0 -1 0 451.8898)" gradientUnits="userSpaceOnUse" x1="36.01" x2="105.93" xlink:href="#e" y1="356.4189" y2="356.4189"/><linearGradient id="t" gradientTransform="matrix(1 0 0 -1 0 451.8898)" gradientUnits="userSpaceOnUse" x1="34.76" x2="104.16" xlink:href="#e" y1="312.4865" y2="312.4865"/><linearGradient id="u" gradientTransform="matrix(1 0 0 -1 0 451.8898)" gradientUnits="userSpaceOnUse" x1="74.73" x2="105.93" xlink:href="#e" y1="359.9298" y2="359.9298"/><linearGradient id="v" gradientTransform="matrix(1 0 0 -1 0 451.8898)" gradientUnits="userSpaceOnUse" x1="31.16" x2="37.4" xlink:href="#e" y1="314.8593" y2="314.8593"/><linearGradient id="w" gradientTransform="matrix(1 0 0 -1 0 451.8898)" gradientUnits="userSpaceOnUse" x1="35.3563" x2="106" xlink:href="#e" y1="333.7332" y2="333.7332"/><linearGradient id="x" gradientTransform="matrix(1 0 0 -1 0 451.8898)" gradientUnits="userSpaceOnUse" x1="67.13" x2="104.05" xlink:href="#e" y1="332.5322" y2="332.5322"/><linearGradient id="y" gradientTransform="matrix(1 0 0 -1 0 451.8898)" gradientUnits="userSpaceOnUse" x1="75.87" x2="105.95" xlink:href="#e" y1="328.5148" y2="328.5148"/><linearGradient id="z" gradientTransform="matrix(1 0 0 -1 0 451.8898)" gradientUnits="userSpaceOnUse" x1="35.74" x2="105.54" xlink:href="#e" y1="311.8515" y2="311.8515"/><linearGradient id="A" gradientTransform="matrix(1 0 0 -1 0 451.8898)" gradientUnits="userSpaceOnUse" x1="35.72" x2="105.54" xlink:href="#e" y1="311.8515" y2="311.8515"/><linearGradient id="B" gradientTransform="matrix(1 0 0 -1 0 451.8898)" gradientUnits="userSpaceOnUse" x1="31.16" x2="32.49" xlink:href="#e" y1="345.5198" y2="345.5198"/><linearGradient id="C" gradientTransform="matrix(1 0 0 -1 0 451.8898)" gradientUnits="userSpaceOnUse" x1="32.24" x2="37.09" xlink:href="#e" y1="342.0198" y2="342.0198"/><linearGradient id="D" gradientTransform="matrix(1 0 0 -1 0 451.8898)" gradientUnits="userSpaceOnUse" x1="32.24" x2="64.34" xlink:href="#e" y1="337.0598" y2="337.0598"/><linearGradient id="E" gradientTransform="matrix(1 0 0 -1 0 451.8898)" gradientUnits="userSpaceOnUse" x1="35.3138" x2="68.28" xlink:href="#e" y1="310.9547" y2="310.9547"/><linearGradient id="F"><stop offset="0" stop-color="#d6832a"/><stop offset=".57" stop-color="#c8432d"/><stop offset="1" stop-color="#c5262d"/></linearGradient><linearGradient id="G" gradientTransform="matrix(1 0 0 -1 0 451.8898)" gradientUnits="userSpaceOnUse" x1="435.8859" x2="446.0814" xlink:href="#F" y1="433.128" y2="433.128"/><linearGradient id="H" gradientTransform="matrix(1 0 0 -1 0 451.8898)" gradientUnits="userSpaceOnUse" x1="435.88" x2="446.08" xlink:href="#F" y1="431.9648" y2="431.9648"/><linearGradient id="I" gradientTransform="matrix(1 0 0 -1 0 451.8898)" gradientUnits="userSpaceOnUse" x1="422.3694" x2="447.1768" xlink:href="#F" y1="423.5903" y2="423.5903"/><linearGradient id="J" gradientTransform="matrix(1 0 0 -1 0 451.8898)" gradientUnits="userSpaceOnUse" x1="373.6227" x2="445.9114" xlink:href="#F" y1="382.1948" y2="382.1948"/><linearGradient id="K" gradientTransform="matrix(1 0 0 -1 0 451.8898)" gradientUnits="userSpaceOnUse" x1="370.3972" x2="398.3478" xlink:href="#F" y1="340.9748" y2="340.9748"/><linearGradient id="L" gradientTransform="matrix(1 0 0 -1 0 451.8898)" gradientUnits="userSpaceOnUse" x1="370.3972" x2="394.6028" xlink:href="#F" y1="337.9303" y2="337.9303"/><linearGradient id="M" gradientTransform="matrix(1 0 0 -1 0 451.8898)" gradientUnits="userSpaceOnUse" x1="326.31" x2="348.16" xlink:href="#F" y1="264.0833" y2="264.0833"/><linearGradient id="N" gradientTransform="matrix(1 0 0 -1 0 451.8898)" gradientUnits="userSpaceOnUse" x1="327.79" x2="392.11" xlink:href="#F" y1="301.9767" y2="301.9767"/><linearGradient id="O" gradientTransform="matrix(1 0 0 -1 0 451.8898)" gradientUnits="userSpaceOnUse" x1="318.73" x2="344.75" xlink:href="#F" y1="253.1504" y2="253.1504"/><linearGradient id="P" gradientTransform="matrix(1 0 0 -1 0 451.8898)" gradientUnits="userSpaceOnUse" x1="321.48" x2="446.2862" xlink:href="#F" y1="333.4248" y2="333.4248"/><linearGradient id="Q" gradientTransform="matrix(1 0 0 -1 0 451.8898)" gradientUnits="userSpaceOnUse" x1="317.4017" x2="324.1017" xlink:href="#F" y1="236.8347" y2="236.8347"/><linearGradient id="R" gradientTransform="matrix(1 0 0 -1 0 451.8898)" gradientUnits="userSpaceOnUse" x1="317.4" x2="319.1" xlink:href="#F" y1="233.2244" y2="233.2244"/><radialGradient id="S" cx="377.8912" cy="423.2298" gradientTransform="matrix(1 0 0 -1 0 451.8898)" gradientUnits="userSpaceOnUse" r="12.1793" xlink:href="#n"/><path d="m71.4 210.7c-95.2 55-95.2 144 0 199s249.5 55 344.7 0 95.2-144 0-199-249.5-55-344.7 0z" fill="#fafafa"/><path d="m107.5 419.6-96.6-55.2c-1.3-.7-1.3-1.9 0-2.6l277-159.9c1.4-.7 3.2-.7 4.6 0l96.6 55.1c1.3.7 1.3 1.9 0 2.6l-277 159.9c-1.4.8-3.2.8-4.6.1z" fill="#e0e0e0"/><path d="m205.6 441.1-42.9-24.8c-2-1.2-2-3.1 0-4.3l121.6-70.2c2.3-1.2 5.1-1.2 7.4 0l42.9 24.8c2 1.2 2 3.1 0 4.3l-121.6 70.2c-2.3 1.2-5.1 1.2-7.4 0z" fill="#e0e0e0"/><ellipse cx="425.7" cy="299.9" fill="#e0e0e0" rx="52.9" ry="30.5"/><path d="m170.9 415.7 36.6 21.1c1.5.8 3.3.8 4.8 0l116.4-67.1c1.4-.9 2.3-2.4 2.4-4.1v-1.7c-.1-1.7-1-3.2-2.4-4.1l-36.6-21.1c-1.5-.7-3.3-.7-4.8 0l-116.3 67c-1.4.9-2.3 2.4-2.4 4.1v1.7c0 1.8.9 3.3 2.3 4.2z" fill="#f0f0f0"/><path d="m287.3 338.7c1.8-1 3.7-.4 5.5.6l34.8 20c1.8 1 1.8 2.7 0 3.8l-114.6 66c-2 1.2-4.5 1.2-6.5 0l-34.8-20c-1-.6-1.4-1.9-.8-3 .2-.3.5-.6.8-.8z" fill="#fafafa"/><path d="m171.7 407.9c-.3-.6-.1-1.4.5-1.8l115.6-66.6c1.2-.7 2.6-.5 4.6.6l34.8 20c.3.2.6.4.8.7.4.7-.4 1.3-.8 1.5l-114.6 66c-1.7 1-3.9 1-5.6 0l-34.9-20c-.1-.1-.3-.3-.4-.4m-.8.4c.2.3.5.6.8.8l34.8 20c2 1.2 4.5 1.2 6.5 0l114.6-66c1.3-.8 1.7-1.8 1.1-2.8-.3-.4-.7-.8-1.1-1l-34.8-20c-1.8-1-3.7-1.6-5.5-.6l-115.6 66.6c-1.1.6-1.4 2-.8 3z" fill="#e0e0e0"/><path d="m170.9 405.8.8-.5c-1 .6-1.4 1.9-.8 3 .2.3.5.6.8.8l34.8 20c1 .6 2.1.9 3.3.9h.1v7.4c-.8 0-1.7-.2-2.4-.6l-36.6-21.1c-1.4-.9-2.3-2.4-2.4-4.1v-1.7c.1-1.7 1-3.2 2.4-4.1z" fill="#e6e6e6"/><path d="m214.3 413.7-11.2.5v-3.6l7-.3-.7-15.2 4-.1z" fill="url(#b)"/><path d="m210.5 390.6 27.1 15.6-27.1 15.6-27.1-15.6zm0-1.1-29 16.7 29 16.7 29-16.7z" fill="url(#c)"/><path d="m289.7 347.4-69.1 39.9c-.4.2-.4.5-.2.7l1.2.7.7.4c.4.2.8.1 1.1-.1l69.2-39.9c.4-.2.4-.5.2-.7l-1.9-1.1c-.4-.1-.9-.1-1.2.1z" fill="#e0e0e0"/><path d="m296 351.1-69.1 39.9c-.4.2-.4.5-.2.7l1.2.7.7.4c.4.2.8.1 1.1-.1l69.2-39.9c.4-.2.4-.5.2-.7l-1.9-1.1c-.4-.2-.8-.1-1.2.1z" fill="#e0e0e0"/><path d="m302.4 354.7-69.2 39.9c-.4.2-.4.5-.2.7l1.2.7.7.4c.4.1.8.1 1.1-.1l69.1-39.9c.4-.2.4-.5.2-.7l-1.9-1.1c-.3-.1-.7-.1-1 .1z" fill="#e0e0e0"/><path d="m308.7 358.4-69.1 39.9c-.4.2-.4.5-.2.6l1.2.7.7.4c.4.1.8.1 1.1-.1l69.2-39.9c.4-.2.4-.5.2-.7l-1.9-1.1c-.4-.1-.8 0-1.2.2z" fill="#e0e0e0"/><path d="m354.9 320.2-2.9 1.7-8.2-4.8c-6.1-3.5-16.8-3.1-23.9 1s-7.8 10.2-1.7 13.8l8.2 4.8-2.9 1.7c-2.5 1.5-2.8 3.7-.6 5l22.7 13.1c2.4 1.1 5.1 1.1 7.5.2 13.2-5.1 24.7-11.7 33.5-19.3.7-.5 1.2-1.4 1.2-2.3-.1-.9-.7-1.6-1.5-2l-22.7-13.1c-2.3-1.4-6.2-1.2-8.7.2zm12.1 20.4-8.2 4.7-6.5-5.4c-2.1.4-4.2.2-6.1-.8-2.4-1.4-2.1-3.8.7-5.5s7-1.8 9.5-.4c1.6.9 2 2.3 1.3 3.5zm-20.3-15.6-15.1 8.7-8.2-4.8c-3.6-2.1-3.1-5.7 1-8.1s10.5-2.7 14.1-.6z" fill="#e0e0e0"/><path d="m289.3 210.5 5.1-2.9s37.9-81.5 40.4-86.5-2-7.7-6.9-4.9l-252.6 145.6c-4.8 2.8-6.4 6.6-10.7 15s-39.2 82-39.2 82c-.7 2 0 4.3 1.8 5.4l68.5 39.6 264.2-152.5z" fill="#455a64"/><path d="m67.8 278.9c-3.3 6.4-39.5 82.4-39.5 82.4l269.3-155.5s37.7-77.4 40.4-82.7-2-7.7-6.9-4.9l-252.6 145.6c-4.8 2.8-7.4 8.7-10.7 15.1z" fill="#263238"/><path d="m292.5 208.7-264.2 152.5 69.4 40.2 264.2-152.6z" fill="#37474f"/><path d="m321.8 22.7-254.5 146.7c-5.6 3.2-7.3 8.4-6.3 15.3l30.1 211.4c1 6.9 6.5 10.9 12 7.7l252.3-145.6c5.6-3.2 9.3-11.4 8.3-18.3l-30-210.6c-1-6.9-6.3-9.8-11.9-6.6z" fill="url(#d)"/><path d="m339 27.2c-2.3-.8-4.8-.5-6.9.9l-252.3 145.5c-2.8 1.8-5.1 4.3-6.4 7.4l-8.1-3.4c1.8-3.9 4.9-5.3 7.6-6.9l252.2-145.6c2.1-1.4 4.8-1.7 7.1-.7z" fill="#37474f"/><path d="m99.3 405.9c-2.5-1-4.3-3.6-4.9-7.4l-29.9-209.6c-.6-4.3-.8-8.1.7-11.4l8.2 3.4c-.2.4-.4.9-.6 1.4s-.3.8-.4 1.1v.2c-.2.4-.3.9-.4 1.3-.1.5-.2.9-.3 1.4-.1.3-.1.7-.2 1-.2 1.5-.2 3 0 4.5l30 210.6c.5 3.8 2.4 6.4 5 7.5z" fill="#263238"/><path d="m332.1 28-254.5 146.7c-5.6 3.2-7.3 8.4-6.3 15.3l30.3 212.4c1 6.9 6.3 9.8 11.9 6.6l252.3-145.6c5.6-3.2 9.3-11.4 8.3-18.3l-30.1-210.5c-1-6.8-6.3-9.8-11.9-6.6z" fill="#455a64"/><path d="m350.2 262.5-225.2 130c-2.9 1.7-5.7.1-6.2-3.4l-29.7-208.4c-.5-3.6 1.4-7.8 4.3-9.5l225.2-130c2.9-1.7 5.6-.1 6.2 3.4l29.7 208.4c.5 3.6-1.4 7.9-4.3 9.5z" fill="#37474f"/><path d="m353.4 259c-.7 1.4-1.8 2.6-3.2 3.5l-225.2 130c-2.8 1.6-5.4.3-6.1-3l225.2-130c1.5-.9 2.6-2.3 3.4-3.9z" fill="#263238"/><path d="m89.1 180.7 29.7 208.4c0 .1.1.3.1.4l225.2-130c2.9-1.7 4.8-5.9 4.3-9.5l-29.8-208.8-225.2 130c-2.8 1.7-4.8 5.9-4.3 9.5z" fill="#fafafa"/><path d="m100.6 309.7c.2 1.9-.6 3.7-2.2 4.8-1.5.8-2.8.1-3.1-1.7-.2-1.9.6-3.7 2.2-4.7 1.5-1 2.9-.2 3.1 1.6z" fill="#263238"/><path d="m90.8 260.9c-1.2.8-1.9 2.3-1.7 3.7l4.9 34.3c.2 1.4 1.3 2 2.4 1.3 1.2-.8 1.9-2.3 1.7-3.7l-4.9-34.3c-.2-1.3-1.3-2-2.4-1.3z" fill="#263238"/><path d="m134.1 387.5c-.1 0-.3 0-.4 0s-.2 0-.3-.1l-.2-.1-.2-.1c-.9-.3-1.6-1.1-1.8-2l-.3-1.9-28.3-197.3c-.7-4.8 1.2-7.7 3.3-8.9l219.1-126.1c.6-.4 1.3-.6 2-.6.3 0 .5 0 .8.1.1 0 .2.1.4.2.1.1.2.1.3.2l.1.1h.1l.1.1v.1c.1.1.2.2.3.4l.1.2.1.3c0 .1.1.2.1.2 0 .2.1.3.1.5l28.7 201.2c.2 2.8-1.2 5.4-3.5 6.9l-214.7 123.7-4.3 2.5-.2.1c-.4.2-.8.4-1.2.4h-.2z" fill="#fafafa"/><path d="m327 51.1c.2 0 .4 0 .6.1l.2.1h.1s.1 0 .1.1l.1.1.1.1.1.1.2.4v.1.1c0 .1.1.3.1.4l28.8 201.3c.1 2.5-1.1 4.9-3.2 6.2l-214.6 123.8-4.2 2.5h-.1l-.1.1h-.1c-.3.2-.6.3-.9.3h-.1-.4-.2l-.2-.1-.1-.1h-.1c-.7-.2-1.2-.8-1.3-1.4l-.1-.9c0-.3-.1-.5-.1-.8l-28.4-197.6c-.6-4.4 1.1-7.1 2.9-8.2l219.3-126.3c.5-.2 1-.4 1.6-.4m0-1.4c-.8 0-1.6.2-2.2.7l-219.2 126.2c-2.5 1.5-4.3 4.8-3.6 9.5l28.3 197.5c-.1-.5-.1-.6-.1-.6s.2 1.5.2 1.5l.1.9c.2 1.1 1 2.1 2.1 2.5l.2.1.3.1c.1.1.3.1.4.1h.5.1c.6 0 1.1-.2 1.6-.5l.1-.1 4.4-2.5 214.8-123.6c2.6-1.6 4.1-4.5 3.9-7.5l-28.9-201.4c0-.2-.1-.4-.1-.5s-.1-.3-.1-.4c0 0 0 0 0-.1s-.1-.3-.2-.4c-.1-.2-.2-.4-.4-.5-.1-.1-.1-.2-.2-.2-.1-.1-.1-.1-.2-.2s-.2-.2-.4-.3c-.1-.1-.3-.1-.5-.2-.2 0-.5 0-.9-.1zm-196.8 333.9v.1z" fill="url(#f)"/><path d="m328 49.9c-1.1-.3-2.3-.1-3.2.5l-219.2 126.2c-2.6 1.6-4.1 4.5-3.9 7.5l1.2 8.2-6.7-2.9-1.1-8.1c-.2-3 1.3-5.9 3.9-7.5l219-126.2c1-.7 2.4-.8 3.5-.4 1 .4 5.4 2.3 6.5 2.7z" fill="#ba68c8"/><path d="m330 52.6c-.4-2.7-2.7-3.7-5.3-2.2l-219.1 126.2c-2.6 1.6-4.1 4.5-3.9 7.5l1.2 8.2 228.3-131.5z" fill="url(#g)"/><path d="m324.7 50.4-219.1 126.2c-1.3.8-2.3 1.9-3 3.3l-6.7-2.9c.7-1.3 1.7-2.5 3-3.2l219.1-126.2c1-.7 2.4-.9 3.5-.4 1 .4 5.3 2.2 6.4 2.7-1-.3-2.2-.1-3.2.5z" fill="url(#h)"/><path d="m96.1 189.4-1.1-8.1c-.1-1.5.2-3 .9-4.3l6.7 2.8c-.7 1.3-1 2.8-.9 4.3l1.2 8.2z" fill="url(#i)"/><path d="m310 63.4c-1.1.8-1.8 2.1-1.6 3.5.2 1.3 1.2 1.9 2.3 1.3 1.1-.8 1.8-2.1 1.6-3.5s-1.2-1.9-2.3-1.3z" fill="#fafafa"/><path d="m317 59.3c-1.1.8-1.8 2.1-1.6 3.5.2 1.3 1.2 1.9 2.3 1.3 1.1-.8 1.8-2.1 1.6-3.5-.2-1.3-1.2-1.9-2.3-1.3z" fill="#fafafa"/><path d="m324 55.3c-1.1.8-1.8 2.1-1.6 3.5.2 1.3 1.2 1.9 2.3 1.3 1.1-.8 1.8-2.1 1.6-3.5-.2-1.3-1.2-1.9-2.3-1.3z" fill="#fafafa"/><path d="m132.6 387.8-.3-.1-5.6-2.4c-1.4-.6-2.5-1.7-3-3.2-.1-.2-.1-.4-.1-.6l-27.5-192.1 6.7 2.9 27.6 193.1c.2 1.1.9 1.9 1.9 2.4z" fill="#ba68c8"/><path d="m132.6 387.8-.3-.1-5.6-2.4c-1.4-.6-2.5-1.7-3-3.2-.1-.2-.1-.4-.1-.6l-27.5-192.1 6.7 2.9 27.6 193.1c.2 1 .9 1.9 1.9 2.4z" fill="url(#j)"/><path d="m222 153.2-100.3 58-2.5-17.3 100.3-57.9z" fill="#e0e0e0"/><path d="m119.2 225.4c-.6 0-1.1-.5-1.1-1.1 0-.4.2-.8.6-1l206.7-119.3c.5-.3 1.2-.1 1.6.4.3.5.1 1.2-.4 1.5l-206.8 119.3c-.2.1-.4.2-.6.2z" fill="#e0e0e0"/><path d="m169.5 212.1-39.5 22.8c-1.4.8-2.8.1-3.1-1.7l-.1-.5c-.2-1.9.6-3.7 2.1-4.7l39.5-22.8c1.4-.8 2.8-.1 3.1 1.7l.1.5c.2 1.8-.6 3.7-2.1 4.7z" fill="#e0e0e0"/><path d="m244.5 168.8-39.5 22.8c-1.4.8-2.8.1-3.1-1.7l-.1-.5c-.2-1.8.6-3.7 2.1-4.7l39.5-22.8c1.4-.8 2.8-.1 3.1 1.7l.1.5c.3 1.9-.6 3.7-2.1 4.7z" fill="#e0e0e0"/><path d="m319.5 125.5-39.5 22.8c-1.4.8-2.8.1-3.1-1.7l-.1-.5c-.2-1.8.6-3.7 2.1-4.7l39.5-22.8c1.4-.8 2.8-.1 3.1 1.7l.1.5c.2 1.9-.6 3.7-2.1 4.7z" fill="#e0e0e0"/><path d="m232.5 263.3-95.1 54.9-9.2-63.8 95.2-55z" fill="#e0e0e0"/><path d="m192.4 249.6-20.1-4.4c-1.2-.3-2.4.5-2.7 1.7-.1.3-.1.5 0 .8l4.2 29.5c.2 1.2 1.3 2.1 2.5 1.9.7-.1 1.3-.5 1.6-1l15.9-25.1c.7-1.1.3-2.4-.7-3.1-.2-.1-.5-.2-.7-.3z" fill="#fafafa"/><path d="m285.6 171.4-49.8 28.8c-1.5.9-3 .1-3.2-1.8l-.1-.5c-.2-2 .6-3.9 2.3-5l49.8-28.8c1.5-.9 3-.1 3.2 1.8l.1.5c.2 2-.7 3.9-2.3 5z" fill="#e0e0e0"/><path d="m234.2 211.2c-.6 0-1.1-.5-1.2-1.1 0-.4.2-.8.6-1l94.2-54.4c.6-.3 1.3-.1 1.6.4s.1 1.3-.4 1.6l-94.2 54.4c-.2.1-.4.1-.6.1z" fill="#e0e0e0"/><path d="m235.5 220.4c-.4 0-.8-.2-1-.6-.3-.5-.1-1.2.4-1.6l94.2-54.4c.6-.3 1.3-.1 1.6.4s.1 1.3-.4 1.6l-94.2 54.4c-.2.1-.4.2-.6.2z" fill="#e0e0e0"/><path d="m236.8 229.5c-.6 0-1.1-.5-1.1-1.1 0-.4.2-.8.6-1l64.4-37.2c.6-.3 1.3-.1 1.6.4.3.6.1 1.3-.4 1.6l-64.5 37.2c-.2.1-.4.1-.6.1z" fill="#e0e0e0"/><path d="m238.1 238.7c-.6 0-1.1-.5-1.1-1.1 0-.4.2-.8.6-1l94.2-54.4c.5-.3 1.2-.1 1.6.4.3.5.1 1.2-.4 1.6l-94.2 54.4c-.3.1-.5.1-.7.1z" fill="#e0e0e0"/><path d="m239.5 247.9c-.4 0-.8-.2-1-.6-.3-.5-.1-1.2.4-1.6l94.2-54.4c.6-.3 1.3-.1 1.6.4s.1 1.3-.4 1.6l-94.3 54.4c-.2.1-.4.2-.5.2z" fill="#e0e0e0"/><path d="m240.8 257c-.4 0-.8-.2-1-.6-.3-.5-.1-1.2.4-1.5l39.7-22.9c.6-.3 1.3-.1 1.6.4s.1 1.3-.4 1.6l-39.7 22.9c-.2.1-.4.1-.6.1z" fill="#e0e0e0"/><path d="m241.4 325.3-5.5-38.8-95.2 55 5.5 38.7z" fill="#e0e0e0"/><path d="m206.3 340.2c.7-1.1.3-2.5-.7-3.1-.2-.1-.5-.2-.7-.3l-20.1-4.4c-1.2-.3-2.4.5-2.7 1.7-.1.3-.1.5 0 .8l3.3 22.8 15.6-9z" fill="#fafafa"/><path d="m298 258.5-49.8 28.8c-1.5.9-3 .1-3.2-1.8l-.1-.5c-.2-2 .6-3.9 2.3-5l49.8-28.7c1.5-.9 3-.1 3.2 1.8l.1.5c.3 1.9-.6 3.8-2.3 4.9z" fill="#e0e0e0"/><path d="m246.7 298.3c-.6 0-1.1-.5-1.1-1.1 0-.4.2-.8.6-1l94.2-54.4c.6-.3 1.3-.1 1.6.4s.1 1.3-.4 1.6l-94.2 54.4c-.3.1-.5.1-.7.1z" fill="#e0e0e0"/><path d="m248 307.5c-.4 0-.8-.2-1-.6-.3-.5-.1-1.2.4-1.5l94.2-54.4c.6-.3 1.3-.1 1.6.4.3.6.1 1.3-.4 1.6l-94.2 54.4c-.2.1-.4.1-.6.1z" fill="#e0e0e0"/><path d="m249.3 316.6c-.6 0-1.1-.5-1.1-1.2 0-.4.2-.8.6-1l64.4-37.2c.6-.3 1.3-.1 1.6.4s.1 1.3-.4 1.6l-64.4 37.2c-.3.2-.5.3-.7.2z" fill="#e0e0e0"/><path d="m251.7 117.7c-.4 0-.8-.2-1-.6-.3-.5-.1-1.2.4-1.5l59.1-34.1c.6-.3 1.3-.1 1.6.4s.1 1.3-.4 1.6l-59.1 34.1c-.2 0-.4.1-.6.1z" fill="#e0e0e0"/><path d="m253.1 126.8c-.6 0-1.1-.5-1.1-1.1 0-.4.2-.8.6-1l59.1-34.1c.6-.3 1.3-.1 1.6.4s.1 1.3-.4 1.6l-59.1 34.1c-.4.1-.6.1-.7.1z" fill="#e0e0e0"/><path d="m254.4 136c-.6 0-1.1-.5-1.1-1.1 0-.4.2-.8.6-1l59.1-34.1c.6-.3 1.3-.1 1.6.4.3.6.1 1.3-.4 1.6l-59.1 34.1c-.3.1-.5.1-.7.1z" fill="#e0e0e0"/><path d="m120.3 203.6c.1-.2.1-.3.2-.5-.1.2-.1.3-.2.5z" fill="#ebebeb"/><path d="m325.6 85.8c-.2-.5-.7-.8-1.2-.7-.4 0-.7.1-1 .3l-201.5 116.2c-.6.4-1.1.9-1.4 1.5l-7.1-3c.3-.6.8-1.1 1.3-1.4l201.6-116.3c1.4-.7 3-.7 4.4-.2l2.4 1c1.1.5 2 1.4 2.5 2.6z" fill="#37474f" opacity=".5"/><path d="m145.8 368.4c-1.4.7-3 .7-4.4.2l-2.4-1.1c-1.3-.6-2.3-1.8-2.7-3.2l-23.3-162.2c-.1-.7.1-1.4.4-2l7.1 3c-.3.6-.5 1.2-.4 1.9l23.2 162.3c0 .8.7 1.4 1.5 1.4.4 0 .7-.1 1-.3z" fill="#263238" opacity=".9"/><path d="m324.3 85c-.3 0-.7.1-1 .3l-201.4 116.3c-1.2.7-1.8 2-1.7 3.4l23.2 162.3c0 .7.7 1.3 1.4 1.3.3 0 .7-.1.9-.3l201.5-116.3c1.2-.7 1.8-2 1.7-3.4l-23.1-162.3c-.1-.7-.7-1.3-1.5-1.3z" fill="#37474f" opacity=".85"/><path d="m324.2 86.5 23.2 162.2c0 .9-.4 1.7-1.1 2.2l-201.4 116.3-23.2-162.2c0-.9.4-1.7 1.1-2.2zm.1-1.5c-.3 0-.7.1-1 .3l-201.4 116.3c-1.2.7-1.8 2-1.7 3.4l23.2 162.3c0 .7.7 1.3 1.4 1.3.3 0 .7-.1.9-.3l201.5-116.3c1.2-.7 1.8-2 1.7-3.4l-23.1-162.3c-.1-.7-.7-1.3-1.5-1.3z" fill="#455a64"/><path d="m192.4 182.2c.8-.5 1.6-.8 2.5-.9.7-.1 1.4-.1 2.1.1.6.2 1.1.5 1.5.9s.6.9.7 1.4c0 .2 0 .3-.1.5-.1.1-.2.3-.3.3l-2.7 1.6c-.1.1-.3.1-.5.2-.1 0-.3 0-.4-.1l-.2-.2c-.1-.1-.3-.1-.4-.1-.2 0-.4 0-.7 0-.3.1-.6.2-.9.4-.3.1-.5.3-.7.5s-.4.4-.6.6-.3.4-.4.6-.1.5-.1.7.1.4.3.5.5.1.7.1c.4-.1.9-.2 1.3-.3l2-.6c.7-.2 1.4-.4 2.1-.4.5 0 1.1 0 1.6.3.4.2.8.6 1 1 .3.6.5 1.2.6 1.9.1.9.1 1.7-.1 2.6s-.6 1.7-1.1 2.5-1.1 1.6-1.9 2.2c-.7.7-1.6 1.3-2.5 1.8-.8.5-1.7.8-2.6 1-.7.1-1.4.1-2.1-.1-.6-.2-1.1-.5-1.5-.9s-.7-1-.8-1.6c0-.2 0-.3.1-.5.1-.1.1-.3.3-.3l2.7-1.6c.1-.1.3-.2.5-.2.1 0 .2 0 .4.1l.3.2c.2.1.3.2.5.2h.8c.4-.1.7-.2 1.1-.4.6-.4 1.2-.8 1.8-1.3.4-.4.6-.9.6-1.5 0-.2-.2-.4-.4-.5-.3-.1-.6-.1-.9 0-.5.1-1 .2-1.4.4-.6.2-1.2.4-2 .6-1.1.5-2.3.4-3.3-.1-.9-.7-1.4-1.8-1.5-2.9-.1-.8-.1-1.5.1-2.3s.5-1.7.9-2.4c.5-.8 1-1.6 1.7-2.2.3-.7 1-1.3 1.9-1.8z" fill="#fafafa"/><path d="m204 194.9c-.1.1-.3.1-.4 0s-.2-.2-.2-.4l-2.4-16.2c0-.2 0-.4.1-.6s.2-.3.4-.4l2.7-1.5c.1-.1.3-.1.4 0s.2.2.2.4l2.3 16.3c0 .2 0 .4-.1.6s-.2.3-.4.4z" fill="#fafafa"/><path d="m213.9 174.1c-.4.2-.8.6-1.1.9-.6.6-.9 1.4-1 2.3 0 .4-.1.8-.1 1.2 0 .2 0 .6.1.9s.1.8.2 1.2.1.8.2 1.2.1.7.2.9c.1.3.2.7.4 1 .1.3.3.5.6.7s.6.2.9.2c.4-.1.8-.2 1.2-.4s.7-.5 1-.7c.3-.3.5-.6.7-.9.2-.4.4-.8.4-1.2.1-.5.1-.9 0-1.4l-1.7 1c-.1.1-.3.1-.4 0s-.2-.2-.2-.4l-.4-2.7c0-.2 0-.4.1-.6s.2-.3.4-.4l4.9-2.9c.1-.1.3-.1.4 0s.2.2.2.4l.5 3.2c.2 1.1.1 2.1-.1 3.2-.2 1-.5 2.1-1 3s-1.1 1.8-1.8 2.5c-.7.8-1.5 1.4-2.4 1.9-.8.5-1.7.9-2.7 1-.7.1-1.5 0-2.2-.3s-1.2-.8-1.6-1.4c-.4-.7-.7-1.5-.9-2.3-.1-.7-.2-1.4-.4-2.2s-.2-1.6-.3-2.3c-.1-1-.1-2 .1-2.9.4-2.1 1.3-4 2.7-5.5.7-.8 1.6-1.5 2.6-2.1.8-.5 1.7-.8 2.6-1 .7-.1 1.4 0 2.1.2.6.2 1.1.5 1.5 1 .4.4.6.9.8 1.5 0 .2 0 .3-.1.5-.1.1-.2.3-.3.4l-2.7 1.6c-.1.1-.3.1-.5.1-.1-.1-.3-.2-.4-.3-.3-.2-.6-.3-.9-.4-.6-.1-1.1 0-1.6.3z" fill="#fafafa"/><path d="m233.9 177.6c-.2.1-.4.2-.6.1-.1 0-.2-.1-.3-.2l-5.9-5.9 1.2 8.5c0 .2 0 .4-.1.6s-.2.3-.4.4l-2.7 1.6c-.1.1-.3.1-.4 0s-.2-.2-.2-.4l-2.3-16.3c0-.2 0-.4.1-.6s.2-.3.4-.4l2.1-1.2c.2-.1.4-.2.6-.1.1 0 .2.1.3.2l5.9 5.9-1.2-8.5c0-.2 0-.4.1-.6s.2-.3.4-.4l2.7-1.5c.1-.1.3-.1.4 0s.2.2.2.4l2.3 16.3c0 .2 0 .4-.1.6s-.2.3-.4.4z" fill="#fafafa"/><path d="m253 147.5c.1-.1.3-.1.4 0s.2.2.2.4l1.4 10.1c.2 1.1.2 2.2 0 3.3-.3 2.1-1.3 4-2.7 5.5-.7.8-1.5 1.4-2.4 1.9-.8.5-1.7.8-2.6 1-1.5.3-3-.4-3.8-1.8-.5-.9-.8-1.8-.9-2.8l-1.4-10c0-.2 0-.4.1-.6s.2-.3.4-.4l2.7-1.6c.1-.1.3-.1.4 0s.2.2.2.4l1.4 9.9c0 .8.4 1.5.9 2 .5.3 1.1.3 2-.2.8-.4 1.4-1.1 1.7-1.9.3-.9.4-1.8.3-2.7l-1.4-9.9c0-.2 0-.4.1-.6s.2-.3.4-.4z" fill="#fafafa"/><path d="m262.7 141.9c.7-.5 1.6-.8 2.4-1 .6-.2 1.3-.1 1.9.1s1.1.7 1.4 1.2c.4.7.7 1.5.8 2.3.2.9.2 1.9 0 2.8s-.5 1.7-.9 2.5-1 1.5-1.6 2.1c-.7.7-1.5 1.3-2.3 1.7l-2.6 1.5.7 5.1c0 .2 0 .4-.1.6s-.2.3-.4.4l-2.7 1.6c-.1.1-.3.1-.4 0s-.2-.2-.2-.4l-2.3-16.3c0-.2 0-.4.1-.6s.2-.3.4-.4zm-1.5 9.4 2.5-1.4c.6-.3 1-.8 1.4-1.3.3-.6.5-1.2.4-1.8-.1-.7-.4-1.1-.8-1.2-.5-.1-1.1 0-1.5.4l-2.5 1.4z" fill="#fafafa"/><path d="m167.5 230.6c0 .4.1.7.1 1s.1.6.2 1c0 .5.3 1 .7 1.3.5.2 1 .2 1.4-.1.3-.2.5-.4.8-.6.2-.2.3-.4.5-.7.1-.2.2-.5.2-.7s.1-.5.1-.7c0-.1 0-.2.1-.2 0-.1.1-.1.1-.1l.4-.3h.2c.1 0 .1.1.1.1v.9c-.1.4-.2.8-.4 1.1-.2.4-.4.8-.7 1.2s-.7.7-1.2 1c-.4.2-.7.4-1.2.4-.3 0-.6-.1-.9-.2-.3-.2-.5-.4-.7-.7-.2-.4-.3-.8-.4-1.2-.1-.7-.2-1.4-.3-2.1-.1-.5-.1-.9 0-1.4.1-.9.5-1.8 1.1-2.5.3-.4.7-.7 1.1-.9s.8-.4 1.3-.4c.6 0 1.2.3 1.5.8.1.2.2.5.3.8v.2c0 .1-.1.1-.1.2l-.4.3c-.1 0-.1 0-.2 0s-.1-.1-.1-.1c-.1-.2-.1-.3-.2-.5-.1-.1-.2-.3-.4-.3-.2-.1-.4-.1-.6-.1-.3 0-.6.2-.8.3-.5.3-1 .8-1.2 1.4-.4.4-.5 1.1-.4 1.8z" fill="#fafafa"/><path d="m175.6 224.8h.2c.1 0 .1.1.1.2l.1.4v.3c0 .1-.1.2-.2.2l-.6.3c-.7.4-1.1 1.2-.9 2l.5 3.5c0 .1 0 .2-.1.3 0 .1-.1.2-.2.2l-.4.2c-.1 0-.1 0-.2 0s-.1-.1-.1-.2l-.8-5.5c0-.1 0-.2 0-.3s.1-.2.2-.2l.4-.2h.2c.1 0 .1.1.1.2l.1.4c.1-.3.2-.6.4-.8s.4-.4.7-.6z" fill="#fafafa"/><path d="m176.7 226.9c0-.4 0-.8.1-1.1.1-.4.2-.7.3-1.1s.3-.7.6-1c.2-.3.5-.5.8-.7s.6-.3 1-.3c.3 0 .6 0 .8.2.3.2.5.4.6.7.2.4.3.8.3 1.1l.1.3c0 .1 0 .2-.1.3 0 .1-.1.2-.2.2l-3.3 1.9v.1c0 .4.2.8.6 1 .3.1.7.1 1-.1s.6-.4.8-.6c.1-.2.3-.4.4-.7 0-.1.1-.1.1-.2s.1-.1.2-.1l.3-.2h.2c.1 0 .1.1.1.2 0 .2 0 .4-.1.6s-.2.5-.3.7c-.2.3-.4.5-.6.7-.3.3-.6.5-.9.7s-.6.3-.9.3-.5-.1-.8-.2c-.2-.1-.4-.3-.6-.6s-.3-.6-.4-1c0-.5-.1-.8-.1-1.1zm.8-.5 2.7-1.6c0-.4-.2-.7-.5-.9-.3-.1-.7-.1-1 .1-.2.1-.4.2-.5.4s-.3.4-.4.6-.2.4-.2.7c0 .2 0 .5-.1.7z" fill="#fafafa"/><path d="m182.2 226c-.1-.3-.1-.6 0-.9s.2-.6.3-.9c.2-.3.4-.5.6-.8.2-.2.5-.5.7-.7l1.3-1.1v-.1c-.1-.4-.2-.6-.5-.7s-.6 0-.8.2c-.3.1-.5.3-.6.6-.1.2-.2.4-.3.7 0 .1-.1.1-.1.2-.1.1-.1.1-.2.1l-.3.2c-.1 0-.1 0-.2 0s-.1-.1-.1-.2c0-.2 0-.4.1-.6.1-.3.2-.5.3-.7.2-.2.3-.5.5-.7s.4-.4.7-.5c.3-.2.5-.3.8-.3.2 0 .5 0 .7.1s.4.3.5.5c.2.3.3.6.3.9l.5 3.6v.3c0 .1-.1.2-.2.2l-.4.2c-.1 0-.1 0-.2 0s-.1-.1-.1-.2l-.1-.5c0 .2-.1.4-.2.6s-.2.4-.4.5c-.1.2-.3.3-.5.5-.1.1-.3.2-.5.3s-.5.2-.7.3-.4.1-.6 0-.3-.2-.4-.3c.2-.4.1-.6.1-.8zm1.9-.4c.2-.1.4-.3.6-.5s.3-.4.4-.6.2-.5.2-.7c0-.3 0-.5 0-.8v-.3l-1.1.9c-.3.3-.7.6-.9.9s-.3.6-.3.9c0 .1 0 .2.1.2 0 .1.1.1.2.2h.3c.2-.1.4-.1.5-.2z" fill="#fafafa"/><path d="m189 221.5c0 .1 0 .3.1.4 0 .1.1.2.2.3s.2.1.3.1.3-.1.4-.2l.5-.3h.2c.1 0 .1.1.1.2l.1.4c0 .1 0 .2-.1.3 0 .1-.1.2-.2.2l-.6.4c-.6.3-1 .4-1.3.2-.4-.3-.6-.8-.6-1.3l-.4-3.1-.7.4c-.1 0-.1 0-.2 0s-.1-.1-.1-.2l-.1-.4c0-.1 0-.2 0-.3s.1-.2.2-.2l.7-.4-.3-1.9c0-.1 0-.2 0-.3s.1-.2.2-.2l.4-.2h.2c.1 0 .1.1.1.2l.3 1.9 1.2-.7h.2c.1 0 .1.1.1.2l.1.4v.3c0 .1-.1.2-.2.2l-1.2.7z" fill="#fafafa"/><path d="m191.1 218.5c0-.4 0-.8.1-1.1.1-.4.2-.7.3-1.1.1-.3.3-.7.6-.9.2-.3.5-.5.8-.7s.6-.3 1-.3c.3 0 .6 0 .8.2.3.2.5.4.6.7.2.4.3.8.3 1.2l.1.3c0 .1 0 .2-.1.3 0 .1-.1.2-.2.2l-3.3 1.9v.1c0 .4.2.8.6 1 .3.1.7.1 1-.1s.6-.4.8-.6c.1-.2.3-.4.4-.7l.1-.2c0-.1.1-.1.2-.1l.3-.2h.2c.1 0 .1.1.1.2 0 .2 0 .4-.1.6s-.2.5-.3.7c-.2.3-.4.5-.6.7-.3.3-.5.5-.9.7-.3.2-.6.3-.9.3s-.5-.1-.8-.2c-.2-.1-.4-.3-.6-.6s-.3-.6-.4-.9c0-.6-.1-1-.1-1.4zm.9-.4 2.7-1.6c0-.4-.2-.8-.5-1-.3-.1-.7-.1-1 .1-.2.1-.4.2-.5.4s-.3.4-.4.6-.2.4-.2.7c-.1.2-.1.5-.1.8z" fill="#fafafa"/><path d="m199 216.3c-.1-.3-.1-.6 0-.9s.2-.6.3-.9c.2-.3.3-.5.6-.8.2-.2.5-.5.7-.7l1.4-1v-.2c-.1-.4-.2-.6-.4-.7-.3-.1-.6 0-.9.2-.2.1-.5.3-.6.6-.1.2-.2.4-.3.7 0 .1-.1.1-.1.2s-.1.1-.2.1l-.3.2c-.1 0-.1 0-.2 0s-.1-.1-.1-.2c0-.2 0-.4.1-.6.1-.3.2-.5.3-.7.2-.2.3-.5.5-.7s.4-.4.7-.6.5-.3.8-.3c.5-.1 1 .1 1.2.6.2.3.3.6.3.9l.5 3.6v.3c0 .1-.1.2-.2.2l-.4.2c-.1 0-.1 0-.2 0s-.1-.1-.1-.2l-.1-.5c0 .2-.1.4-.2.6s-.2.4-.4.5c-.1.2-.3.3-.5.5-.1.1-.3.2-.5.3s-.5.2-.7.3-.4.1-.6 0-.3-.2-.4-.3c.1-.3 0-.5 0-.7zm1.9-.4c.2-.1.4-.3.6-.5s.3-.4.4-.6.2-.5.2-.7c0-.3 0-.5 0-.8v-.3l-1.1.9c-.3.3-.7.6-.9.9-.2.2-.3.6-.3.9 0 .1 0 .2.1.2 0 .1.1.1.2.2h.3c.2-.1.4-.1.5-.2z" fill="#fafafa"/><path d="m211.8 210.6c-.1 0-.2 0-.2 0-.1 0-.1-.1-.2-.1l-4-4 .8 5.9c0 .1 0 .2-.1.3 0 .1-.1.2-.2.2l-.4.2c-.1 0-.1 0-.2 0s-.1-.1-.1-.2l-1.1-7.7c0-.1 0-.2.1-.3 0-.1.1-.2.2-.2l.3-.2h.2c.1 0 .1.1.2.1l4 4-.8-5.9c0-.1 0-.2.1-.3 0-.1.1-.2.2-.2l.4-.2h.2c.1 0 .1.1.1.2l1.1 7.7c0 .1 0 .2-.1.3 0 .1-.1.2-.2.2z" fill="#fafafa"/><path d="m213.1 205.8c0-.4 0-.8.1-1.1.1-.4.2-.7.3-1.1.1-.3.3-.7.6-.9.2-.3.5-.5.8-.7s.6-.3 1-.3c.3 0 .6 0 .8.2.3.2.5.4.6.7.2.4.3.8.3 1.2l.1.3c0 .1 0 .2-.1.3 0 .1-.1.2-.2.2l-3.3 1.9v.1c0 .4.2.8.6 1 .3.1.7.1 1-.1s.6-.4.8-.6.3-.4.4-.6c0-.1.1-.1.1-.2s.1-.1.2-.1l.3-.2h.2c.1 0 .1.1.1.2 0 .2 0 .4-.1.6s-.2.5-.3.7c-.2.3-.4.5-.6.7-.3.3-.6.5-.9.7s-.6.3-.9.3-.5-.1-.8-.2c-.2-.1-.4-.3-.6-.6s-.3-.6-.4-1c0-.7 0-1.1-.1-1.4zm.9-.5 2.7-1.6c0-.4-.2-.7-.5-.9-.4-.1-.7-.1-1.1.1-.2.1-.4.2-.5.4s-.3.4-.4.6-.2.4-.2.7z" fill="#fafafa"/><path d="m223.6 201.7.5-4.6c0-.1 0-.2.1-.2 0-.1.1-.2.2-.2l.3-.2h.2c.1 0 .1.1.1.2v.1l-.7 6.3c0 .1 0 .2-.1.3 0 .1-.1.2-.2.2l-.3.2c-.1 0-.2.1-.2 0-.1 0-.1-.1-.1-.2l-1.7-3.3-.6 4.6c0 .1 0 .2-.1.3 0 .1-.1.2-.2.2l-.3.2c-.1 0-.1 0-.2 0s-.1-.1-.1-.2l-2.2-4.6v-.1c0-.1 0-.2 0-.2 0-.1.1-.1.1-.2l.3-.2c.1-.1.2-.1.2 0 .1 0 .1.1.1.1l1.6 3.3.6-4.6c0-.1 0-.2.1-.2 0-.1.1-.2.2-.2l.2-.1c.1 0 .2-.1.2 0 .1 0 .1.1.1.1z" fill="#fafafa"/><path d="m232.7 196.4-3.4 1.9-.3 1.9c0 .1 0 .2-.1.3s-.1.2-.3.2l-.4.2s-.1 0-.2 0-.1-.1-.1-.1c0-.1 0-.1 0-.2l1.3-8.9c0-.1.1-.2.1-.3.1-.1.1-.2.3-.3l.6-.3c.1-.1.2-.1.3 0 .1 0 .1.1.2.2l3.4 6.1s.1.1.1.1v.2c0 .1-.1.1-.1.2l-.4.2c-.1.1-.2.1-.3.1s-.1-.1-.1-.1zm-3.1.7 2.7-1.6-1.9-3.5z" fill="#fafafa"/><path d="m235.5 194c0 .3.1.5.3.7.1.2.2.3.4.4.1.1.3.1.5.1s.3-.1.5-.2c.3-.2.6-.4.8-.7s.3-.6.4-1c0-.1.1-.2.1-.3s.1-.1.2-.2l.3-.2h.2c.1 0 .1.1.1.2 0 .2 0 .5-.1.7-.1.3-.2.6-.3.9-.2.3-.4.6-.6.9-.3.3-.6.5-.9.7s-.6.3-1 .3c-.3 0-.5 0-.8-.2-.2-.1-.4-.4-.6-.6-.2-.3-.3-.6-.3-1 0-.2-.1-.3-.1-.5s-.1-.4-.1-.5c0-.4 0-.8 0-1.2s.2-.8.3-1.1c.1-.4.3-.7.6-1s.6-.6.9-.8.6-.3 1-.3c.3 0 .5 0 .7.1s.4.2.5.4.2.3.2.5v.3c0 .1-.1.2-.2.2l-.3.2c-.1 0-.1 0-.2 0s-.1-.1-.2-.2c-.1-.2-.4-.4-.6-.4-.3 0-.6.1-.8.2s-.3.2-.5.4-.3.4-.4.6-.2.5-.2.7v.9c.1.4.2.7.2 1z" fill="#fafafa"/><path d="m240.9 190.9c.1.3.1.5.3.7.1.2.2.3.4.4.1.1.3.1.5.1s.3-.1.5-.2c.3-.2.6-.4.8-.7s.4-.6.4-1c0-.1.1-.2.1-.3s.1-.1.2-.2l.3-.2h.2c.1 0 .1.1.1.2 0 .2 0 .5-.1.7-.1.3-.2.6-.3.9-.2.3-.4.6-.6.9-.3.3-.6.5-.9.7s-.6.3-1 .3c-.3 0-.5 0-.8-.2-.2-.2-.4-.4-.6-.6-.2-.3-.3-.7-.3-1l-.1-.5c0-.2 0-.3-.1-.5 0-.4 0-.8 0-1.2.1-.4.2-.8.3-1.1.2-.4.4-.7.6-1 .3-.3.6-.6.9-.8s.6-.3 1-.3c.3 0 .5 0 .8.1.2.1.4.2.5.4s.2.3.2.5v.3c0 .1-.1.2-.2.2l-.3.2c-.1 0-.1 0-.2 0s-.1-.1-.2-.2c-.1-.2-.4-.4-.6-.4-.3 0-.6.1-.8.2s-.3.2-.5.4c-.1.2-.3.4-.4.6s-.2.5-.2.7v.9c0 .4 0 .7.1 1z" fill="#fafafa"/><path d="m247.1 183.4c.3-.2.6-.3 1-.3.3 0 .5 0 .8.1.2.1.4.3.6.6s.3.6.4 1v.2s0 .2 0 .3 0 .2 0 .3 0 .2 0 .2c0 .4 0 .8-.1 1.2s-.2.7-.3 1.1c-.2.3-.4.7-.6.9-.3.3-.6.5-.9.7s-.6.3-.9.3-.5 0-.8-.1c-.2-.1-.4-.3-.6-.6s-.3-.6-.4-1c0-.1 0-.2 0-.2 0-.1 0-.2-.1-.3 0-.1 0-.2 0-.3s0-.2 0-.3c0-.4 0-.8.1-1.2s.2-.8.3-1.1c.2-.3.4-.7.6-.9.3-.2.6-.5.9-.6zm2 2.8c0-.2 0-.3-.1-.5 0-.2-.1-.4-.1-.5-.1-.2-.1-.4-.2-.6s-.2-.3-.4-.4c-.1-.1-.3-.1-.5-.1s-.4.1-.6.2-.4.3-.6.5-.3.4-.4.6-.2.5-.2.7v.7c0 .2 0 .3.1.5 0 .2 0 .3.1.5s.1.4.2.6.2.3.3.4.3.1.5.1.4-.1.6-.2.4-.3.6-.5.3-.4.4-.6.1-.4.1-.7c.2-.1.2-.4.2-.7z" fill="#fafafa"/><path d="m250.6 181.8c0-.1 0-.2 0-.3s.1-.2.2-.2l.4-.2h.2c.1 0 .1.1.1.2l.4 3.1c0 .4.2.9.5 1.2.3.1.7.1 1-.1.4-.2.7-.6.9-1 .2-.5.2-1 .1-1.6l-.4-3.1c0-.1 0-.2.1-.3 0-.1.1-.2.2-.2l.4-.2h.2c.1 0 .1.1.1.2l.8 5.5v.3c0 .1-.1.2-.2.2l-.4.2c-.1 0-.1 0-.2 0s-.1-.1-.1-.2v-.4c-.1.3-.3.6-.4.9-.2.3-.5.6-.9.8-.3.2-.6.3-.9.3-.2 0-.5 0-.7-.1s-.4-.3-.5-.6c-.2-.3-.3-.7-.3-1z" fill="#fafafa"/><path d="m261.7 181.4v.3c0 .1-.1.2-.2.2l-.4.2c-.1 0-.1 0-.2 0s-.1-.1-.1-.2l-.5-3.1c0-.4-.2-.9-.5-1.2-.3-.2-.8-.1-1.1.1-.4.2-.7.6-.9 1-.2.5-.3 1-.2 1.6l.5 3.1v.3c0 .1-.1.2-.2.2l-.4.2c-.1 0-.1 0-.2 0s-.1-.1-.1-.2l-.8-5.5c0-.1 0-.2 0-.3s.1-.2.2-.2l.4-.2h.2c.1 0 .1.1.1.2l.1.4c.1-.3.3-.6.5-.9s.6-.6.9-.8.6-.3.9-.3.5 0 .7.1.4.3.5.6c.2.3.3.7.3 1z" fill="#fafafa"/><path d="m264.1 178.1c0 .1 0 .3.1.4 0 .1.1.2.2.3s.2.1.3.1.3-.1.4-.2l.5-.3h.2c.1 0 .1.1.1.2l.1.4v.3c0 .1-.1.2-.2.2l-.6.4c-.6.3-1 .4-1.3.2-.4-.3-.6-.8-.6-1.3l-.4-3.1-.7.4c-.1 0-.1 0-.2 0s-.1-.1-.1-.2l-.1-.4c0-.1 0-.2 0-.3s.1-.2.2-.2l.7-.4-.3-1.9c0-.1 0-.2 0-.3s.1-.2.2-.2l.4-.2h.2c.1 0 .1.1.1.2l.3 1.9 1.2-.7h.2c.1 0 .1.1.1.2l.1.4v.3c0 .1-.1.2-.2.2l-1.2.7z" fill="#fafafa"/><path d="m269.2 169.4v.3c0 .1-.1.2-.2.2l-.5.3c-.1 0-.1 0-.2 0s-.1-.1-.1-.2l-.1-.7c0-.1 0-.2 0-.3s.1-.2.2-.2l.5-.3h.2c.1 0 .1.1.1.2zm.9 7.1v.3c0 .1-.1.2-.2.2l-.4.2c-.1 0-.1 0-.2 0s-.1-.1-.1-.2l-.8-5.5c0-.1 0-.2 0-.3s.1-.2.2-.2l.4-.2h.2c.1 0 .1.1.1.2z" fill="#fafafa"/><path d="m274.2 172.7c0-.1-.1-.2-.2-.3s-.2-.1-.3-.1c-.2 0-.4 0-.5.1l-.8.2c-.5.3-1.2.1-1.5-.4-.1-.2-.2-.4-.2-.6s0-.5 0-.7c0-.3.1-.5.3-.8.1-.3.3-.5.5-.7s.5-.5.8-.6c.3-.2.5-.3.8-.4h.6c.2 0 .3.1.4.2s.2.2.2.4v.3c0 .1-.1.2-.2.2l-.3.2-.1.1c-.1 0-.1 0-.2-.1s-.3-.1-.4-.1c-.3 0-.5.1-.7.3-.3.2-.5.4-.7.6s-.2.5-.2.7c0 .1.1.2.1.3.1.1.2.1.3.1.2 0 .3 0 .5-.1l.7-.2c.2-.1.5-.1.8-.1.2 0 .4 0 .5.1s.3.2.3.4c.1.2.1.4.2.5v.8c-.1.3-.2.6-.3.8-.2.3-.4.5-.6.8s-.5.5-.8.6c-.3.2-.6.3-.9.4-.2 0-.4 0-.7 0-.2 0-.3-.1-.5-.2-.1-.1-.2-.2-.2-.4 0-.1 0-.2 0-.3s.1-.2.2-.2l.4-.2s.1-.1.1-.1c.1 0 .1 0 .2.1s.3.2.5.2c.3 0 .5-.1.7-.3.1-.1.3-.2.4-.3s.2-.2.3-.4c.1-.1.2-.3.2-.4.3-.2.3-.3.3-.4z" fill="#fafafa"/><path d="m281.9 161.1h.2c.1 0 .1.1.1.2l.1.4v.3c0 .1-.1.2-.2.2l-3.2 1.8.4 2.8 3-1.7h.2c.1 0 .1.1.1.2l.1.4v.3c0 .1-.1.2-.2.2l-3 1.7.5 3.1v.3c0 .1-.1.2-.2.2l-.4.2c-.1 0-.1 0-.2 0s-.1-.1-.1-.2l-1.1-7.7c0-.1 0-.2 0-.3s.1-.2.2-.2z" fill="#fafafa"/><path d="m285.9 161.1h.2c.1 0 .1.1.1.2l.1.4v.3c0 .1-.1.2-.2.2l-.6.3c-.7.4-1.1 1.2-.9 2l.5 3.5v.3c0 .1-.1.2-.2.2l-.4.2c-.1 0-.1 0-.2 0s-.1-.1-.1-.2l-.8-5.5c0-.1 0-.2 0-.3s.1-.2.2-.2l.4-.2h.2c.1 0 .1.1.1.2l.1.4c.1-.3.2-.6.4-.8s.4-.4.7-.6z" fill="#fafafa"/><path d="m287 163.1c0-.4 0-.8.1-1.1.1-.4.2-.7.3-1.1s.3-.7.6-1c.2-.3.5-.5.8-.7s.6-.3 1-.3c.3 0 .6 0 .8.2.3.2.5.4.6.7.2.4.3.8.3 1.1v.3.3c0 .1-.1.2-.2.2l-3.4 2v.1c0 .4.2.8.6 1 .3.1.7.1 1-.1s.6-.4.8-.6c.1-.2.3-.4.4-.7 0-.1.1-.1.1-.2s.1-.1.2-.1l.3-.2h.2c.1 0 .1.1.1.2 0 .2 0 .4-.1.6s-.2.5-.3.7c-.2.3-.4.5-.6.7-.3.3-.6.5-.9.7s-.6.3-.9.3-.5 0-.8-.2c-.2-.1-.4-.3-.6-.6s-.3-.6-.4-1c.1-.5 0-.8 0-1.2zm.9-.4 2.7-1.6c0-.4-.2-.7-.5-.9-.4-.1-.7-.1-1 .1-.2.1-.4.2-.5.4s-.3.4-.4.6-.2.4-.2.7c-.2.2-.2.4-.1.7z" fill="#fafafa"/><path d="m292.4 160c0-.4 0-.8.1-1.1.1-.4.2-.7.3-1.1.1-.3.3-.7.6-.9.2-.3.5-.5.8-.7s.6-.3 1-.3c.3 0 .6 0 .8.2.3.2.5.4.6.7.2.4.3.8.3 1.2v.3.3c0 .1-.1.2-.2.2l-3.3 1.9v.1c0 .4.2.8.6 1 .3.1.7.1 1-.1s.6-.4.8-.6.3-.4.4-.7l.1-.2c0-.1.1-.1.2-.1l.3-.2h.2c.1 0 .1.1.1.2 0 .2 0 .4-.1.6s-.2.5-.3.7c-.2.3-.4.5-.6.7-.3.3-.6.5-.9.7s-.6.3-.9.3-.5-.1-.8-.2c-.2-.1-.4-.3-.6-.6s-.3-.6-.4-1c0-.6-.1-.9-.1-1.3zm.9-.5 2.7-1.5c0-.4-.2-.7-.5-.9-.3-.1-.7-.1-1 .1-.2.1-.4.3-.5.4-.2.2-.3.4-.4.6s-.2.4-.2.7c-.1.2-.1.4-.1.6z" fill="#fafafa"/><path d="m299.3 176.1-129.8 74.9c-.7.4-1.1 1.2-1 2l.5 3.1 1.8 12.4c.1.7.7 1 1.4.6l129.8-74.8c.7-.4 1.1-1.2 1-2l-2.2-15.6c0-.5-.5-.8-.9-.8-.3.1-.5.2-.6.2z" fill="#fff" opacity=".5"/><path d="m175.9 307.4 134.4-77.5c.6-.4 1.2-.1 1.3.5l2.5 17.6c0 .7-.3 1.4-.9 1.8l-134.4 77.5c-.6.4-1.2.1-1.3-.5l-2.5-17.6c-.1-.7.2-1.4.9-1.8z" opacity=".2"/><path d="m309.3 234.4-129.8 74.9c-.7.4-1.1 1.2-1 2l2.2 15.6c.2.8.8 1.5 1.6 1.9l2.7 1.1c.9.3 1.8.3 2.6-.1l129.8-74.9c.7-.4 1.1-1.2 1-2l-2.2-15.6c-.2-.8-.8-1.5-1.6-1.9l-2.7-1.1c-.9-.3-1.8-.3-2.6.1z" fill="#ba68c8"/><path d="m187.6 329.8c-.8.4-1.8.4-2.6.1l-2.7-1.1c-.8-.3-1.4-1-1.6-1.9l-2.2-15.6c0-.4 0-.8.2-1.2l5.5 2.3c-.2.3-.3.7-.2 1.1l2.2 15.6c0 .5.4.8.9.8.1.1.3 0 .5-.1z" fill="url(#k)"/><path d="m316.1 237.1c-.1-.5-.6-.7-1.1-.6-.1 0-.2.1-.3.2l-129.7 74.9c-.3.2-.6.5-.8.9l-5.5-2.3c.2-.3.5-.6.8-.8l129.8-74.9c.8-.4 1.8-.4 2.6-.1l2.7 1.1c.7.3 1.3.9 1.5 1.6z" fill="url(#l)"/><path d="m314.8 236.7-129.8 74.9c-.7.4-1.1 1.2-1 2l.4 3.2 1.8 12.4c0 .5.4.8.9.8.2 0 .4-.1.5-.2l129.8-74.9c.7-.4 1.1-1.2 1-2l-2.2-15.6c-.1-.7-.7-.9-1.4-.6z" fill="#ba68c8"/><path d="m314.8 236.7-129.8 74.9c-.7.4-1.1 1.2-1 2l.4 3.2 1.8 12.4c0 .5.4.8.9.8.2 0 .4-.1.5-.2l129.8-74.9c.7-.4 1.1-1.2 1-2l-2.2-15.6c-.1-.7-.7-.9-1.4-.6z" fill="url(#m)"/><path d="m229.8 291.2c.6-.4 1.3-.6 2-.4.6.3.9 1 .9 1.6.1.6 0 1.2-.1 1.8-.2.6-.5 1.1-.9 1.5l1.8 2.3s0 .1.1.1v.2c0 .1-.1.1-.1.2l-.9.5c-.1.1-.2.1-.3 0-.1 0-.1-.1-.2-.1l-1.7-2.1-1.4.8.4 2.9v.3c0 .1-.1.2-.2.2l-.8.5c-.1 0-.1 0-.2 0s-.1-.1-.1-.2l-1.2-8.1c0-.1 0-.2 0-.3s.1-.2.2-.2zm-1 4.8 1.5-.9c.4-.2.7-.5.9-.8s.3-.8.2-1.1c-.1-.5-.2-.7-.5-.7-.4 0-.7.1-1 .3l-1.5.9z" fill="#fff"/><path d="m239.5 293.4h.2c.1 0 .1.1.1.2l.1.9v.3c0 .1-.1.2-.2.2l-4.4 2.6c-.1 0-.1 0-.2 0s-.1-.1-.1-.2l-1.2-8.1c0-.1 0-.2.1-.3 0-.1.1-.2.2-.2l4.4-2.5h.2c.1 0 .1.1.1.2l.1.9c0 .1 0 .2-.1.3 0 .1-.1.2-.2.2l-3.3 1.9.3 2 3-1.8h.2c.1 0 .1.1.1.2l.1.9c0 .1 0 .2-.1.3 0 .1-.1.2-.2.2l-3 1.8.3 2.1z" fill="#fff"/><path d="m240.1 288.7c-.1-.5-.1-1 0-1.5.2-1 .6-1.9 1.3-2.6.4-.4.8-.7 1.3-1s1-.5 1.5-.6c.3 0 .7 0 1 .1.2.1.5.3.6.5l.3.6v.3c0 .1-.1.2-.2.2l-.8.5c-.1 0-.1 0-.2 0 0 0-.1 0-.1-.1l-.1-.1c-.1-.1-.2-.2-.3-.2-.2 0-.4 0-.5 0-.3 0-.5.1-.8.3-.5.3-.9.7-1.1 1.2-.3.5-.4 1.1-.3 1.6 0 .3.1.7.1 1s.1.7.2 1c.1.7.4 1.1.7 1.2.4.1.9 0 1.3-.2.2-.1.5-.3.7-.5.4-.4.7-.9.8-1.4.1-.3.1-.7 0-1l-1.2.7c-.1 0-.1 0-.2 0s-.1-.1-.1-.2l-.1-.9c0-.1 0-.2.1-.3 0-.1.1-.2.2-.2l2.3-1.4h.2c.1 0 .1.1.1.2l.2 1.4c.1.5.1 1 0 1.5s-.2 1-.4 1.4c-.2.5-.5.9-.9 1.3s-.8.7-1.3 1c-.4.3-.9.4-1.4.5-.3 0-.7 0-1-.1-.3-.2-.6-.4-.7-.8-.2-.4-.3-.8-.4-1.2 0-.1 0-.3-.1-.5 0-.2-.1-.4-.1-.6s-.1-.4-.1-.6-.5-.3-.5-.5z" fill="#fff"/><path d="m248.6 289.8c-.1 0-.1 0-.2 0s-.1-.1-.1-.2l-1.2-8.1c0-.1 0-.2 0-.3s.1-.2.2-.2l.8-.5h.2c.1 0 .1.1.1.2l1.2 8.1c0 .1 0 .2-.1.3 0 .1-.1.2-.2.2z" fill="#fff"/><path d="m252.5 278c.4-.2.8-.4 1.2-.5.3-.1.6 0 .9.1.2.1.5.2.6.4.2.2.3.4.3.7 0 .1 0 .2-.1.3 0 .1-.1.2-.2.2l-.7.4c-.1.1-.2.1-.3.1s-.1-.1-.2-.1c-.1-.2-.3-.2-.5-.3-.4 0-.7.1-1 .3-.2.1-.3.2-.5.4-.1.1-.3.3-.4.4s-.2.3-.2.5v.5c0 .2.1.3.2.4s.2.1.4.1.4 0 .6-.1c.3-.1.6-.2 1-.3s.7-.2 1.1-.2c.3 0 .5 0 .8.1.2.1.4.3.5.5.1.3.2.5.3.8.1.4 0 .8 0 1.2-.1.4-.2.8-.5 1.2s-.5.7-.9 1-.8.7-1.2.9c-.3.2-.7.4-1.1.5-.3.1-.7.1-1 0-.3 0-.5-.2-.8-.4-.2-.2-.4-.5-.4-.8 0-.1 0-.2 0-.3s.1-.2.2-.2l.7-.4c.1-.1.2-.1.3-.1s.1.1.2.1c.1.1.1.2.2.2.1.1.2.1.3.1h.5c.2-.1.4-.2.6-.3s.4-.2.6-.4c.2-.1.3-.3.5-.5.1-.2.2-.3.3-.5s.1-.4.1-.6c0-.1-.1-.3-.2-.4s-.3-.1-.5 0c-.3 0-.5.1-.8.2l-1 .3c-.3.1-.6.1-.9.2-.2 0-.5 0-.7-.1s-.4-.3-.5-.5c-.1-.3-.2-.6-.3-.9 0-.4 0-.8.1-1.1.1-.4.2-.8.4-1.1.2-.4.5-.7.8-1 .4-.6.8-.8 1.2-1z" fill="#fff"/><path d="m261.3 273h.2c.1 0 .1.1.1.2l.1.9v.3c0 .1-.1.2-.2.2l-1.8 1.1 1 6.8v.3c0 .1-.1.2-.2.2l-.8.5c-.1 0-.1 0-.2 0s-.1-.1-.1-.2l-1-6.8-1.8 1c-.1 0-.1 0-.2 0s-.1-.1-.1-.2l-.1-.9c0-.1 0-.2 0-.3s.1-.2.2-.2z" fill="#fff"/><path d="m268.3 276.7h.2c.1 0 .1.1.1.2l.1.9v.3c0 .1-.1.2-.2.2l-4.5 2.6c-.1 0-.1 0-.2 0s-.1-.1-.1-.2l-1.2-8.1c0-.1 0-.2 0-.3s.1-.2.2-.2l4.4-2.5h.2c.1 0 .1.1.1.2l.1.9v.3c0 .1-.1.2-.2.2l-3.3 1.9.3 2 3-1.8h.2c.1 0 .1.1.1.2l.1.9v.3c0 .1-.1.2-.2.2l-3.1 1.8.3 2.1z" fill="#fff"/><path d="m271.7 267c.6-.4 1.3-.6 2-.4.6.3.9 1 1 1.6s0 1.2-.1 1.8c-.2.6-.5 1.1-.9 1.5l1.8 2.3v.1.2c0 .1-.1.1-.1.2l-.9.5c-.1.1-.2.1-.3 0-.1 0-.1-.1-.2-.1l-1.8-2.1-1.3.8.4 2.9c0 .2-.1.4-.2.5l-.8.5c-.1 0-.1 0-.2 0s-.1-.1-.1-.2l-1.2-8.1c0-.1 0-.2 0-.3s.1-.2.2-.2zm-1 4.8 1.5-.9c.4-.2.7-.5.9-.8s.3-.8.2-1.1c-.1-.5-.2-.7-.5-.7-.4 0-.7.1-1 .3l-1.5.9z" fill="#fff"/><path d="m304 204.3-129.9 74.9c-.7.4-1.1 1.2-1 2l.4 3.2 1.8 12.4c0 .5.4.8.9.8.2 0 .4-.1.5-.2l129.8-74.9c.7-.4 1.1-1.2 1-2l-2.2-15.6c0-.7-.7-.9-1.3-.6z" fill="#fff" opacity=".5"/><g fill="#37474f"><path d="m203.3 243.9c.1-.1.2 0 .3 0v.1l.1.4v.2c0 .1-.1.1-.2.2l-3.8 2.2c-.1 0-.1 0-.2 0s-.1-.1-.1-.2l-1-7c0-.1 0-.2 0-.2 0-.1.1-.1.2-.2l3.7-2.1h.2c.1 0 .1.1.1.2v.4.2c0 .1-.1.1-.2.2l-3.1 1.8.3 2.3 2.9-1.7h.2c.1 0 .1.1.1.2l.1.4v.2c0 .1-.1.1-.2.2l-2.9 1.6.4 2.4z"/><path d="m209.1 241.3v.2c0 .1-.1.1-.2.2l-.3.2c-.1.1-.2.1-.3 0v-.1l-.4-2.9c0-.4-.2-.8-.5-1-.3-.1-.7-.1-1 .1-.4.2-.7.6-.9 1-.2.5-.3 1-.2 1.5l.4 2.9c0 .1 0 .2-.1.2 0 .1-.1.1-.2.2l-.3.2c-.1 0-.1 0-.2 0s-.1-.1-.1-.2l-.7-5.1c0-.1 0-.2 0-.2 0-.1.1-.1.2-.2l.3-.2h.2c.1 0 .1.1.1.2l.1.3c.1-.3.3-.6.4-.8.2-.3.5-.6.9-.8.3-.1.6-.2.9-.3.2 0 .5 0 .7.1s.4.3.5.5c.2.3.3.6.3.9z"/><path d="m211.5 238.2c0 .1 0 .3.1.4 0 .1.1.2.2.2.1.1.2.1.3.1s.3-.1.4-.2l.5-.3h.2c.1 0 .1.1.1.2l.1.4c0 .2-.1.3-.2.4l-.6.3c-.5.3-1 .4-1.2.2-.4-.3-.6-.7-.6-1.2l-.4-2.8-.7.4c-.1 0-.1 0-.2 0s-.1-.1-.1-.2l-.1-.4c0-.1 0-.2 0-.2 0-.1.1-.1.2-.2l.7-.4-.2-1.8c0-.1 0-.2 0-.2 0-.1.1-.1.2-.2l.4-.2h.2c.1 0 .1.1.1.2l.3 1.8 1.2-.7h.2c.1 0 .1.1.1.2v.4.2c0 .1-.1.2-.2.2l-1.2.7z"/><path d="m213.5 235.4c0-.3 0-.7.1-1s.2-.7.3-1 .3-.6.6-.9c.2-.3.5-.5.8-.7s.6-.3.9-.3.5 0 .8.1l.6.6c.2.3.3.7.3 1.1v.3.2c0 .1-.1.1-.2.2l-3.2 1.9c0 .4.2.7.6.9.3.1.7.1 1-.1s.5-.4.8-.6c.1-.2.3-.4.4-.6 0-.1.1-.1.1-.2s.1-.1.2-.1l.3-.2h.2c.1 0 .1.1.1.2 0 .2 0 .4-.1.5-.1.2-.2.5-.3.7-.2.2-.4.5-.6.7-.3.3-.5.5-.9.6-.3.2-.6.3-.9.3s-.5 0-.7-.1-.4-.3-.6-.5c-.2-.3-.3-.6-.3-.9-.2-.4-.3-.7-.3-1.1zm.9-.4 2.6-1.5c0-.4-.2-.7-.5-.9-.3-.1-.7-.1-1 .2-.2.1-.3.2-.5.4-.1.2-.3.3-.4.5s-.2.4-.2.6z"/><path d="m221.1 228.6h.2c.1 0 .1.1.1.2l.1.4c0 .1 0 .2-.1.2 0 .1-.1.1-.2.2l-.5.3c-.7.4-1.1 1.1-.9 1.9l.5 3.2c0 .1 0 .2-.1.2 0 .1-.1.1-.2.2l-.4.2c-.1 0-.1 0-.2 0s-.1-.1-.1-.2l-.7-5.1c0-.1 0-.2 0-.2 0-.1.1-.1.2-.2l.3-.2c.1-.1.2-.1.3 0v.1l.1.3c.1-.3.2-.5.4-.7s.4-.4.7-.6z"/><path d="m226.5 233.5c0 .1 0 .2-.1.2 0 .1-.1.1-.2.2l-.4.2c-.1 0-.1 0-.2 0s-.1-.1-.1-.1l.6-2.8-2.5-3.7s0 0 0-.1 0-.2 0-.2c0-.1.1-.1.1-.2l.4-.2h.2c.1 0 .1.1.1.1l2 2.9.9-4.5c0-.1 0-.2.1-.2 0-.1.1-.2.2-.2l.4-.2h.2c.1 0 .1.1.1.1v.1z"/><path d="m231 222.7c.3-.2.6-.3.9-.3s.5 0 .8.1c.2.1.4.3.6.5.2.3.3.6.4.9v.2.3.3s0 .2 0 .2c0 .4 0 .7-.1 1.1-.1.3-.2.7-.3 1-.2.3-.4.6-.6.9s-.5.5-.9.7c-.3.2-.6.3-.9.3s-.5 0-.7-.1-.4-.3-.6-.5c-.2-.3-.3-.6-.3-.9 0-.1 0-.1-.1-.2s0-.2 0-.3 0-.2 0-.3 0-.2 0-.2c0-.4 0-.7.1-1.1.1-.3.2-.7.3-1 .2-.3.4-.6.6-.9.1-.3.5-.5.8-.7zm1.9 2.6c0-.2 0-.3 0-.5s0-.3-.1-.4c0-.2-.1-.4-.2-.5s-.2-.3-.3-.3c-.1-.1-.3-.1-.5-.1s-.4.1-.6.2-.4.3-.6.4c-.1.2-.3.4-.4.6s-.2.4-.2.6v.7.5s.1.3.1.4c0 .2.1.4.2.5s.2.3.3.3c.1.1.3.1.5.1s.4-.1.6-.2.4-.3.6-.4c.1-.2.3-.4.4-.6s.2-.4.2-.6 0-.5 0-.7z"/><path d="m234.5 221.2c0-.1 0-.2 0-.2 0-.1.1-.1.2-.2l.4-.2h.2c.1 0 .1.1.1.2l.4 2.9c0 .4.2.8.5 1.1.3.1.7.1 1-.1.4-.2.7-.6.9-1 .2-.5.2-1 .2-1.4l-.4-2.9c0-.1 0-.2 0-.2 0-.1.1-.1.2-.2l.3-.2h.2c.1 0 .1.1.1.2l.7 5.1c0 .1 0 .2-.1.2 0 .1-.1.1-.2.2l-.3.2c-.1 0-.1 0-.2 0s-.1-.1-.1-.2v-.3c-.1.3-.3.6-.4.8-.2.3-.5.6-.9.8-.3.2-.5.3-.8.3-.2 0-.5 0-.7-.1s-.4-.3-.5-.5c-.1-.3-.2-.6-.3-.9z"/><path d="m242.5 216.2h.2c.1 0 .1.1.1.2v.4.2c0 .1-.1.1-.2.2l-.5.3c-.7.3-1.1 1.1-.9 1.9l.5 3.2c0 .1 0 .2-.1.2 0 .1-.1.1-.2.2l-.3.2c-.1 0-.1 0-.2 0s-.1-.1-.1-.2l-.7-5.1c0-.1 0-.2 0-.2 0-.1.1-.1.2-.2l.3-.2h.2c.1 0 .1.1.1.2v.3c.1-.5.5-1 1-1.3z"/><path d="m250.5 216.7h.2c.1 0 .1.1.1.2l.1.4v.2c0 .1-.1.1-.2.2l-3.8 2.2c-.1 0-.1 0-.2 0s-.1-.1-.1-.2l-1-7c0-.1 0-.2.1-.2 0-.1.1-.1.2-.2l3.7-2.1h.2c.1 0 .1.1.1.2v.4.2c0 .1-.1.1-.2.2l-3.1 1.8.3 2.3 2.9-1.7h.2c.1 0 .1.1.1.2l.1.4v.2c0 .1-.1.1-.2.2l-3 1.6.3 2.4z"/><path d="m251.7 214c-.1 0-.1 0-.2 0s-.1-.1-.1-.2v-.4c0-.1 0-.2 0-.2 0-.1.1-.1.2-.2l2.8-1.6h.2c.1 0 .1.1.1.2v.3.2c0 .1-.1.1-.2.2z"/><path d="m256.6 208.8c0-.1.1-.2.2-.4.1-.1.2-.3.3-.4s.2-.3.3-.4.3-.2.5-.3c.3-.2.6-.3 1-.3.3 0 .5.2.7.4.1-.2.1-.4.2-.5.1-.2.2-.3.3-.5s.2-.3.4-.4.3-.3.5-.4c.6-.4 1.1-.4 1.5-.1.4.4.7 1 .7 1.6l.4 3v.2c0 .1-.1.1-.2.2l-.3.2c-.1 0-.1 0-.2 0s-.1-.1-.1-.2l-.4-2.9c0-.4-.2-.8-.5-1.1-.3-.2-.6-.1-.9.1s-.6.5-.7.9c-.2.4-.2.9-.1 1.4l.4 3v.2c0 .1-.1.1-.2.2l-.4.2c-.1 0-.1 0-.2 0s-.1-.1-.1-.2l-.4-2.9c0-.4-.2-.8-.5-1.1-.3-.2-.6-.1-.9.1s-.6.5-.8.8c-.2.4-.2.9-.1 1.4l.4 3v.3c0 .1-.1.1-.2.2l-.4.2c-.1 0-.1 0-.2 0s-.1-.1-.1-.2l-.7-5.1c0-.1 0-.2.1-.2 0-.1.1-.1.2-.2l.4-.2h.2c.1 0 .1.1.1.2z"/><path d="m264.2 208.2c-.1-.3-.1-.6 0-.9s.2-.6.3-.8c.2-.3.3-.5.6-.7.2-.2.5-.4.7-.6l1.3-1v-.1c0-.4-.2-.6-.4-.7-.3-.1-.6 0-.8.2-.2.1-.4.3-.6.5-.1.2-.2.4-.3.6 0 .1-.1.1-.1.2s-.1.1-.2.1l-.3.2c-.1 0-.1 0-.2 0s-.1-.1-.1-.2c0-.2 0-.4.1-.6s.2-.5.3-.7c.2-.2.3-.5.5-.6.2-.2.4-.4.7-.5.2-.1.5-.3.8-.3.2 0 .5 0 .7.1s.4.2.5.4c.2.3.3.5.3.8l.5 3.3v.2c0 .1-.1.1-.2.2l-.3.2c-.1 0-.1 0-.2 0s-.1-.1-.1-.2l-.1-.4c0 .2-.1.4-.2.5-.1.2-.2.4-.4.5-.1.2-.3.3-.5.4-.1.1-.3.2-.5.3s-.4.2-.7.3c-.2 0-.4 0-.6 0-.2-.1-.3-.2-.4-.3 0 0 0-.2-.1-.4zm1.8-.3c.2-.1.4-.3.6-.5s.3-.4.4-.6.2-.4.2-.7c0-.2 0-.5 0-.7v-.3l-1.1.8c-.3.3-.6.6-.9.9-.2.2-.3.5-.3.8 0 .1 0 .2.1.2 0 .1.1.1.2.1h.3c.3.1.4 0 .5 0z"/><path d="m269.9 199.1v.2c0 .1-.1.1-.2.2l-.5.3c-.1 0-.1 0-.2 0s-.1-.1-.1-.2l-.1-.6c0-.1 0-.2 0-.2 0-.1.1-.1.2-.2l.5-.3h.2c.1 0 .1.1.1.2zm.8 6.6v.2c0 .1-.1.1-.2.2l-.4.2c-.1 0-.1 0-.2 0s-.1-.1-.1-.2l-.7-5.1c0-.1 0-.2 0-.2 0-.1.1-.1.2-.2l.4-.2h.2c.1 0 .1.1.1.2z"/><path d="m273 204.4v.3c0 .1-.1.1-.2.2l-.4.2c-.1 0-.1 0-.2 0s-.1-.1-.1-.2l-1-7.1c0-.1 0-.2 0-.2 0-.1.1-.1.2-.2l.4-.2h.2c.1 0 .1.1.1.2z"/><path d="m200.3 277.3h.2c.1 0 .1.1.1.2l.1.4v.2c0 .1-.1.1-.2.2l-3.8 2.2c-.1 0-.1 0-.2 0s-.1-.1-.1-.2l-1-7c0-.1 0-.2.1-.2 0-.1.1-.1.2-.2l3.7-2.1h.2c.1 0 .1.1.1.2l.1.4v.2c0 .1-.1.2-.2.2l-3.1 1.8.3 2.3 2.9-1.7h.2c.1 0 .1.1.1.2l.1.4c0 .2-.1.3-.2.4l-2.9 1.7.3 2.4z"/><path d="m206.1 274.7v.2c0 .1-.1.1-.2.2l-.4.2c-.1 0-.1 0-.2 0s-.1-.1-.1-.2l-.4-2.9c-.1-.5-.2-.9-.5-1s-.7-.1-1 .1c-.4.2-.7.6-.9 1-.2.5-.3 1-.2 1.5l.4 2.9v.2c0 .1-.1.1-.2.2l-.4.2c-.1 0-.1 0-.2 0s-.1-.1-.1-.2l-.7-5.1c0-.1 0-.2 0-.2 0-.1.1-.1.2-.2l.4-.2h.2c.1 0 .1.1.1.2v.3c.1-.3.3-.6.5-.8.2-.3.5-.6.9-.8.3-.2.5-.3.8-.3.2 0 .5 0 .7.1s.4.3.5.5c.2.3.3.6.3.9z"/><path d="m208.5 271.6c0 .1 0 .2.1.4 0 .1.1.2.2.2.1.1.2.1.3.1s.3-.1.4-.2l.5-.3h.2c.1 0 .1.1.1.2l.1.4c0 .1 0 .2-.1.2 0 .1-.1.1-.2.2l-.6.3c-.6.3-1 .4-1.2.2-.4-.3-.6-.7-.6-1.2l-.4-2.8-.7.4c-.1 0-.1 0-.2 0s-.1-.1-.1-.2l-.1-.4c0-.1 0-.2.1-.2 0-.1.1-.1.2-.2l.7-.4-.3-1.8c0-.1 0-.2.1-.2 0-.1.1-.1.2-.2l.4-.2h.2c.1 0 .1.1.1.2l.2 1.8 1.2-.7h.2c.1 0 .1.1.1.2l.1.4c0 .1 0 .2-.1.2 0 .1-.1.1-.2.2l-1.2.7z"/><path d="m210.5 268.8c0-.4 0-.7.1-1.1.1-.3.2-.7.3-1 .2-.3.3-.6.6-.9.2-.3.5-.5.8-.7s.6-.3.9-.3.5 0 .8.2c.2.2.4.4.6.6.2.3.3.7.3 1.1v.3.2c0 .1-.1.1-.2.2l-3.2 1.9v.1c0 .5.4 1 .9 1 .2 0 .5-.1.6-.2.3-.2.5-.4.8-.6.1-.2.3-.4.4-.6 0-.1.1-.1.1-.2s.1-.1.2-.1l.3-.2h.2c.1 0 .1.1.1.2 0 .2 0 .4-.1.5-.1.2-.2.4-.3.6-.2.3-.4.5-.6.7-.3.2-.5.5-.8.6-.3.2-.6.3-.9.3-.2 0-.5 0-.7-.1s-.4-.3-.6-.5c-.2-.3-.3-.6-.4-.9-.1-.4-.2-.7-.2-1.1zm.8-.5 2.6-1.5c0-.4-.2-.7-.5-.9-.3-.1-.7 0-1 .2-.2.1-.4.2-.5.4-.2.2-.3.3-.4.5s-.2.4-.2.6c.1.3.1.5 0 .7z"/><path d="m218.1 261.9h.2c.1 0 .1.1.1.2v.4c0 .2-.1.3-.2.4l-.5.3c-.7.3-1.1 1.1-.9 1.9l.4 3.2v.2c0 .1-.1.1-.2.2l-.4.2c-.1 0-.1 0-.2 0s-.1-.1-.1-.2l-.7-5.1c0-.1 0-.2.1-.2 0-.1.1-.1.2-.2l.4-.2h.2c.1 0 .1.1.1.2v.3c.1-.3.2-.5.4-.8.2-.2.4-.4.7-.5z"/><path d="m223.5 266.9c0 .1 0 .1-.1.2 0 .1-.1.2-.2.2l-.4.2c-.1 0-.1 0-.2 0s-.1-.1-.1-.1v-.1l.6-2.8-2.5-3.7s0 0 0-.1 0-.2 0-.2c0-.1.1-.1.1-.2l.4-.2h.2s.1.1.1.1l2 2.9.9-4.5c0-.1 0-.2.1-.2 0-.1.1-.1.2-.2l.4-.2h.2c.1 0 .1.1.1.1v.1z"/><path d="m228 256.1c.3-.2.6-.3.9-.3s.5 0 .7.1.4.3.6.5c.2.3.3.6.3.9v.2c0 .1 0 .2.1.3v.3.2c0 .4 0 .7-.1 1.1-.1.3-.2.7-.3 1-.2.3-.4.6-.6.9-.3.3-.5.5-.9.7-.3.2-.6.3-.9.3s-.5 0-.8-.1c-.2-.1-.4-.3-.6-.5-.2-.3-.3-.6-.4-.9 0-.1 0-.1 0-.2s0-.2-.1-.3v-.3c0-.1 0-.2 0-.2 0-.4 0-.7.1-1.1.1-.3.2-.7.3-1 .2-.3.4-.6.6-.9.5-.3.8-.5 1.1-.7zm1.9 2.6c0-.1 0-.3 0-.5s0-.3-.1-.5c0-.2-.1-.4-.2-.5s-.2-.3-.3-.3c-.1-.1-.3-.1-.4-.1-.2 0-.4.1-.6.2s-.4.3-.6.5c-.1.2-.3.4-.4.6s-.2.4-.2.6v.7c0 .2 0 .3.1.5 0 .1 0 .3.1.4 0 .2.1.4.2.5s.2.3.3.3c.1.1.3.1.5.1s.4-.1.6-.2.4-.3.6-.5.3-.4.4-.6.2-.4.2-.6c-.2-.1-.2-.4-.2-.6z"/><path d="m231.4 254.6c0-.1 0-.2 0-.2 0-.1.1-.1.2-.2l.3-.2h.2c.1 0 .1.1.1.2l.4 2.9c0 .4.2.8.5 1.1.3.1.7.1 1-.1.4-.2.7-.5.9-1s.3-1 .2-1.4l-.4-2.9c0-.1 0-.2 0-.2 0-.1.1-.1.2-.2l.4-.2h.2c.1 0 .1.1.1.2l.7 5.1c0 .2-.1.3-.2.4l-.4.2c-.1 0-.1 0-.2 0s-.1-.1-.1-.2l-.1-.3c-.1.3-.3.5-.4.8-.2.3-.5.6-.9.8-.3.2-.5.3-.8.3-.2 0-.5 0-.7-.1s-.4-.3-.5-.5c-.2-.3-.3-.7-.3-1z"/><path d="m239.5 249.6h.2c.1 0 .1.1.1.2l.1.4c0 .1 0 .2-.1.2 0 .1-.1.1-.2.2l-.5.3c-.7.3-1.1 1.1-.9 1.9l.4 3.2v.3c0 .1-.1.1-.2.2l-.4.2c-.1 0-.1 0-.2 0s-.1-.1-.1-.2l-.7-5.1c0-.1 0-.2 0-.2 0-.1.1-.1.2-.2l.4-.2h.2c.1 0 .1.1.1.2v.3c.1-.3.2-.5.4-.7s.4-.4.7-.6z"/><path d="m245.1 244.2c.3-.2.6-.3.9-.4s.5-.1.8 0c.2.1.4.2.6.4.2.3.3.6.3.9.1.4.1.8 0 1.1-.1.4-.2.7-.4 1s-.4.6-.6.9c-.3.2-.5.5-.9.6l-1.7 1 .4 2.7c0 .1 0 .2-.1.2 0 .1-.1.1-.2.2l-.4.2c-.1 0-.1 0-.2 0s-.1-.1-.1-.2l-1-7c0-.1 0-.2.1-.2 0-.1.1-.1.2-.2zm-1.2 4.7 1.7-1c.4-.2.8-.5 1-.9s.3-.8.2-1.2c-.1-.5-.2-.7-.5-.8-.4 0-.8.1-1.1.3l-1.7 1z"/><path d="m248.8 248.8c-.1-.3-.1-.6 0-.9s.2-.5.3-.8c.2-.3.3-.5.6-.7.2-.2.5-.4.7-.6l1.3-1v-.1c-.1-.4-.2-.6-.4-.6-.3-.1-.6 0-.8.2-.2.1-.4.3-.6.5-.1.2-.2.4-.3.6 0 .1-.1.1-.1.2-.1.1-.1.1-.2.1l-.3.2c-.1 0-.1 0-.2 0s-.1-.1-.1-.2c0-.2 0-.4.1-.6s.2-.5.3-.7c.2-.2.3-.5.5-.6.2-.2.4-.4.7-.5.2-.2.5-.3.8-.3.2-.1.5 0 .7.1s.4.3.5.4c.2.3.3.5.3.8l.5 3.3v.2c0 .1-.1.1-.2.2l-.3.2c-.1 0-.1 0-.2 0s-.1-.1-.1-.2l-.1-.4c0 .2-.1.4-.2.5-.1.2-.2.3-.4.5-.1.2-.3.3-.5.4-.1.1-.3.2-.4.3-.2.1-.4.2-.7.3-.2 0-.4 0-.6 0-.2-.1-.3-.2-.4-.3s-.1-.3-.2-.5zm1.9-.4c.2-.1.4-.3.6-.5s.3-.4.4-.6.2-.4.2-.7c0-.2 0-.5 0-.7v-.3l-1.1.9c-.3.3-.6.6-.9.9-.2.2-.3.5-.3.8 0 .1 0 .1.1.2 0 .1.1.1.2.1h.3c.2 0 .3 0 .5-.1z"/><path d="m257.1 243.9c0-.1-.1-.2-.1-.3-.1-.1-.2-.1-.3-.1-.2 0-.4.1-.5.1-.2.1-.4.1-.7.2-.4.2-.8.2-1.2 0-.3-.2-.4-.5-.4-.8 0-.2 0-.5 0-.7.1-.3.1-.5.3-.7.1-.2.3-.5.5-.7s.5-.4.8-.6.5-.3.8-.3h.6c.2 0 .3.1.4.2s.2.2.2.3v.2c0 .1-.1.2-.2.2l-.3.2h-.1c-.1 0-.1 0-.2 0-.1-.1-.3-.1-.4-.1-.2 0-.5.1-.7.3-.3.1-.5.3-.7.6-.1.2-.2.4-.2.7 0 .1 0 .2.1.3s.2.1.3.1c.2 0 .3 0 .5-.1l.7-.2c.2-.1.5-.1.8-.1.2 0 .4 0 .5.1s.2.2.3.3c.1.2.1.3.1.5v.7c-.1.3-.2.5-.3.8-.2.3-.3.5-.6.7-.2.2-.5.5-.8.6-.3.2-.5.3-.8.3-.2 0-.4 0-.7 0-.2 0-.3-.1-.4-.2s-.2-.2-.2-.3 0-.2 0-.2c0-.1.1-.2.2-.2l.3-.2.1-.1h.2c.1.1.3.2.5.1.3 0 .5-.1.7-.3.1-.1.3-.2.4-.3s.2-.2.3-.4c.1-.1.2-.2.2-.4-.1 0 0-.1 0-.2z"/><path d="m261.8 241.1c0-.1-.1-.2-.1-.3-.1-.1-.2-.1-.3-.1-.2 0-.4.1-.5.1-.2 0-.5.1-.7.2-.4.2-.8.2-1.1 0s-.4-.5-.5-.8c0-.2 0-.5 0-.7 0-.3.1-.5.3-.7.1-.2.3-.5.5-.7s.5-.4.8-.6.5-.3.8-.3h.6c.2 0 .3.1.4.2s.2.2.2.3v.2c0 .1-.1.1-.2.2l-.3.2-.1.1c-.1 0-.1 0-.2 0-.1-.1-.3-.1-.4-.1-.2 0-.5.1-.7.3-.3.1-.5.3-.7.6-.2.2-.2.4-.2.7 0 .1.1.2.1.3.1.1.2.1.3.1.2 0 .3 0 .5-.1l.7-.2c.2-.1.5-.1.8-.1.2 0 .4 0 .5.1s.3.2.3.3c.1.2.1.3.2.5v.7c-.1.3-.2.5-.3.8-.2.3-.3.5-.6.7-.2.2-.5.4-.8.6s-.5.3-.8.3c-.2 0-.4 0-.6 0s-.3-.1-.5-.2c-.1-.1-.2-.2-.2-.3s0-.2 0-.2c0-.1.1-.2.2-.2l.3-.2.1-.1h.2c.1.1.3.2.5.1.2 0 .5-.1.7-.3.1-.1.3-.2.4-.3s.2-.2.3-.4c.1-.1.2-.2.2-.4-.1 0-.1-.1-.1-.3z"/><path d="m268.2 237.2.5-4.2c0-.1 0-.2.1-.2 0-.1.1-.2.2-.2l.3-.2h.2c.1 0 .1.1.1.1v.1l-.7 5.8c0 .1 0 .2-.1.3 0 .1-.1.2-.2.2l-.3.2c-.1 0-.1.1-.2 0-.1 0-.1-.1-.1-.1l-1.6-3-.6 4.3c0 .1 0 .2-.1.3 0 .1-.1.2-.2.2l-.3.2c-.1 0-.1 0-.2 0s-.1-.1-.1-.2l-2.1-4.2v-.1c0-.1 0-.1 0-.2s.1-.1.1-.2l.3-.2h.2c.1 0 .1.1.1.1l1.6 3 .6-4.3c0-.1 0-.1.1-.2 0-.1.1-.2.2-.2l.2-.1c.1-.1.2-.1.2 0 0 0 .1.1.1.1z"/><path d="m272.4 230.4c.3-.2.6-.3.9-.3s.5 0 .8.1c.2.1.4.3.5.5.2.3.3.6.3.9v.2s0 .2 0 .3 0 .2 0 .3 0 .2 0 .2c0 .4 0 .7-.1 1.1-.1.3-.2.7-.3 1-.2.3-.4.6-.6.9-.3.3-.5.5-.9.7-.3.2-.6.3-.9.3-.5.1-1-.2-1.3-.6-.2-.3-.3-.6-.3-.9 0-.1 0-.1 0-.2s0-.2 0-.3v-.3c0-.1 0-.2 0-.2 0-.4 0-.7.1-1.1.1-.3.2-.7.3-1 .2-.3.4-.6.6-.9.3-.2.6-.5.9-.7zm1.9 2.7c0-.2 0-.3 0-.5s0-.3-.1-.5c0-.2-.1-.4-.2-.5s-.2-.3-.3-.3c-.1-.1-.3-.1-.5-.1s-.4.1-.6.2-.4.3-.6.4c-.1.2-.3.4-.4.6s-.2.4-.2.6v.7.5c0 .1 0 .3.1.4 0 .2.1.4.2.5s.2.3.3.3c.1.1.3.1.5.1s.4-.1.6-.2.4-.3.6-.4c.1-.2.3-.4.4-.6s.2-.4.2-.6 0-.4 0-.6z"/><path d="m278.3 227.2h.2c.1 0 .1.1.1.2v.4.2c0 .1-.1.1-.2.2l-.5.3c-.7.4-1.1 1.1-.9 1.9l.5 3.2v.2c0 .1-.1.1-.2.2l-.3.2c-.1 0-.1 0-.2 0s-.1-.1-.1-.2l-.7-5.1c0-.1 0-.2 0-.2 0-.1.1-.1.2-.2l.3-.2h.2c.1 0 .1.1.1.2v.3c.1-.3.2-.5.4-.7s.4-.4.7-.6z"/><path d="m281.2 225.4c.3-.2.6-.3 1-.3.2 0 .4.1.6.2l-.3-2.4c0-.1 0-.2 0-.2 0-.1.1-.1.2-.2l.4-.2h.2c.1 0 .1.1.1.2l1 7.1v.2c0 .1-.1.1-.2.2l-.3.2c-.1 0-.1 0-.2 0s-.1-.1-.1-.2v-.3c-.1.3-.3.6-.5.8-.2.3-.5.6-.9.8-.3.2-.5.3-.9.3-.3 0-.5 0-.7-.1s-.4-.3-.6-.6-.3-.6-.4-1c0-.1-.1-.2-.1-.3s0-.2 0-.4c-.1-.4-.1-.8 0-1.2s.2-.7.3-1.1c.2-.3.4-.6.6-.9.2-.2.5-.4.8-.6zm1.9 2.6c0-.1 0-.3 0-.4 0-.2 0-.3-.1-.4 0-.4-.2-.8-.6-1-.3-.1-.7-.1-1 .1-.4.2-.7.6-.9 1-.2.5-.3 1-.2 1.5 0 .2 0 .4.1.6 0 .4.3.8.6 1 .3.1.7.1 1-.1.4-.2.7-.6.9-1 .1-.4.2-.9.2-1.3z"/></g><path d="m31.2 108.5 70.6-40.8 2.8 1.6c.8.5 1.3 1.4 1.3 2.3v52.1c0 .9-.5 1.8-1.3 2.3l-68 39.2c-.8.4-1.8.4-2.7 0l-1.5-.9c-.8-.5-1.3-1.4-1.3-2.3z" fill="#ba68c8"/><path d="m101.4 63.1.3-.2-1.1-.6-.3-.1-31.1-11.6c-.9-.3-1.8 0-2.4.8l-34.8 50.8c-.5.9-.9 1.9-.9 2.9v3.4l1.1.6 69.6-41.4v-3.4c0-.4-.1-.8-.4-1.2z" fill="url(#o)"/><path d="m68.3 51.7c-.1.1-.3.2-.4.4l-34.8 50.8c-.3.4-.5.9-.7 1.4l-1.1-.6c.1-.3.2-.5.3-.8l.1-.3c.1-.1.1-.2.2-.3l34.8-50.9.2-.2.2-.2z" fill="url(#p)" opacity=".4"/><path d="m101.7 62.9c-.1-.1-.2-.1-.3-.1l-31.1-11.5c-.7-.2-1.4-.1-2 .4l-1.1-.7c.6-.5 1.3-.6 2-.4l31.1 11.5c.1 0 .2.1.3.1z" fill="url(#q)" opacity=".7"/><path d="m67.9 52-34.8 50.8c-.5.9-.9 1.9-.9 2.9v3.4l70.6-40.8v-3.4c0-.9-.6-1.8-1.5-2.1l-31-11.5c-.9-.3-1.8 0-2.4.7z" fill="url(#r)"/><path d="m101 126v-77.1l-63.7 36.8v77.1z" fill="#fafafa"/><path d="m100.8 49.3v76.7l-63.3 36.5v-76.7zm.3-.7-64 37v77.5l64-37z" fill="#ebebeb"/><path d="m37.1 85.6-1.4-.8 64-37 1.4.8z" fill="#f5f5f5"/><path d="m35.7 84.8v77.5l1.4.8v-77.5z" fill="#e0e0e0"/><path d="m43 95.4c.1 0 .2 0 .3-.1l52.3-30.2c.3-.2.4-.6.2-.9s-.6-.4-.9-.2l-52.2 30.2c-.3.2-.4.6-.2.9.1.2.3.3.5.3z" fill="#e0e0e0"/><path d="m43 105.6c.1 0 .2 0 .3-.1l52.3-30.2c.3-.2.4-.6.2-.9s-.6-.4-.9-.2l-52.3 30.2c-.3.2-.4.6-.2.9.2.2.4.3.6.3z" fill="#e0e0e0"/><path d="m43 115.8c.1 0 .2 0 .3-.1l52.3-30.2c.3-.2.4-.6.2-.9s-.6-.4-.9-.2l-52.3 30.2c-.3.2-.4.6-.2.9.2.2.4.3.6.3z" fill="#e0e0e0"/><path d="m105.9 71.3c-.1-.4-.3-.5-.5-.3-.1.1-.2.2-.3.3l-.2.2-29 44.2-4.3 6c-.6.7-1.5 1.1-2.4.9l-3.7-.9-28.6-10.5c-.2 0-.4 0-.6 0l-.2.1 1.1-.6 27.4 10 3.6 1.3c.9.2 1.8-.2 2.4-.9l4.3-6 29.1-44.4c.1-.1.2-.2.3-.3l-2.5-1.5 1.1-.6 1.8 1c.6.5 1.1 1.2 1.2 2z" fill="url(#s)"/><path d="m104.2 124.4-.1.1-29.4-9.3c-2.3-1-5-.2-6.4 2l-31.5 46.7-1.2.7c-.3.2-.6.2-.9.1l32.4-48.2c1.3-2.2 4-3 6.4-2z" fill="url(#t)"/><path d="m104.6 69.3-1.8-1-1.1.6 2.5 1.4c-.1.1-.2.2-.3.3l-29 44.4-.1.2.2.1 1 .3 29-44 .2-.2c.1-.1.2-.3.3-.3.3-.2.5-.1.5.3-.2-.9-.7-1.6-1.4-2.1z" fill="url(#u)" opacity=".4"/><path d="m37.4 112.1-6.2-3.6v53.6c.1.9.6 1.8 1.3 2.3l1.5.9c.8.4 1.8.4 2.7 0l.8-.4v-52.8z" fill="url(#v)"/><path d="m37.4 112.1-6.2-3.6v53.6c.1.9.6 1.8 1.3 2.3l1.5.9c.8.4 1.8.4 2.7 0l.8-.4v-52.8z" fill="url(#v)" opacity=".25"/><path d="m106 71.6v52.1c0 .5-.2.9-.4 1.3-.2.3-.5.6-.8.9h-.1l-.1.1-68 39.2c-.3.2-.6.2-.9.1-.2-.1-.4-.4-.4-.6 0-.1 0-.2 0-.2v-52.1c0-.6.4-1.2 1.1-1.2h.4l28.5 10.5 3.7.9c.9.2 1.8-.2 2.4-.9l4.3-6 29-44.2.2-.2c.7-.7 1.1-.5 1.1.3z" fill="url(#w)"/><path d="m106 71.6v52.1c0 .5-.2.9-.4 1.3-.2.3-.5.6-.8.9h-.1l-.1.1-68 39.2c-.3.2-.6.2-.9.1-.2-.1-.4-.4-.4-.6 0-.1 0-.2 0-.2v-52.1c0-.6.4-1.2 1.1-1.2h.4l28.5 10.5 3.7.9c.9.2 1.8-.2 2.4-.9l4.3-6 29-44.2.2-.2c.7-.7 1.1-.5 1.1.3z" fill="url(#w)" opacity=".5"/><path d="m104.1 124.6-29.3-9.4c-2.3-1-5.1-.2-6.4 2l-1.2-.7c1.3-2.1 3.7-2.9 6.4-2z" fill="url(#x)"/><path d="m104.1 124.6-29.3-9.4c-2.3-1-5.1-.2-6.4 2l-1.2-.7c1.3-2.1 3.7-2.9 6.4-2z" fill="url(#x)" opacity=".8"/><path d="m104.6 126 .1-.1c.3-.2.6-.5.8-.9.3-.4.4-.9.4-1.3l-30.1-8 20.2 15.3z" fill="url(#y)"/><path d="m105.5 125.1c-.2.3-.5.6-.8.9h-.1l-68.1 39.3c-.3.2-.6.2-.9.1l32.6-48.2c1.3-2.2 4.1-3 6.4-2z" fill="url(#z)"/><path d="m105.5 125.1c-.2.3-.5.6-.8.9l-68.1 39.3h-.1c-.3.2-.6.2-.9.1l32.6-48.2c1.3-2.2 4.1-3 6.4-2z" fill="url(#A)" opacity=".6"/><path d="m31.4 103.6 1.1.6c-.1.5-.2 1-.2 1.4v3.4l-1.1-.6v-3.4c0-.4.1-.9.2-1.4z" fill="url(#B)" opacity=".25"/><path d="m37.1 110.6-1.1.7-1.1-.7-2.7-1.5 1.1-.6z" fill="url(#C)"/><path d="m37.1 110.7-3.9-2.2-1 .6 2.7 1.6 1.1.6c.1 0 .1-.1.2-.1h.6l2.2.8 25 9.2.4-.6z" fill="url(#D)" opacity=".4"/><path d="m68.3 117.1-32.5 48.2c-.3-.2-.5-.5-.4-.9v-.9l31.8-47.2z" fill="url(#E)"/><path d="m68.3 117.1-32.5 48.2c-.3-.2-.5-.5-.4-.9v-.9l31.8-47.2z" fill="url(#E)" opacity=".3"/><path d="m177.6 30-9.1-5.3c-5-2.8-11.9-2.4-19.5 2-15.3 8.8-27.8 30.4-27.8 48.1 0 8.8 3.1 15 8.1 18l8 4.6 2.5-4.1c2.8-.6 5.5-1.7 8-3.1 15.3-8.8 27.8-30.4 27.8-48.1 0-2.4-.3-4.8-.9-7.1z" fill="#37474f"/><path d="m122.3 65.5c-.7 3.1-1 6.2-1 9.3 0 8.8 3.1 15 8.1 18l8 4.6 2.5-4.1c2.8-.6 5.5-1.7 8-3.1 2.7-1.6 5.3-3.5 7.6-5.6z" fill="#263238"/><path d="m157.4 31.6c-15.3 8.8-27.8 30.4-27.8 48.1s12.4 24.9 27.8 16 27.8-30.3 27.8-48-12.4-25-27.8-16.1z" fill="#455a64"/><path d="m168.4 56.2v-6.8c0-7.8-4.7-11.3-10.5-8-5.8 3.4-10.5 12.4-10.5 20.1v6.1c-.1 4.2-1.4 8.3-3.6 11.9-.5 1-.8 2-.9 3.1 0 2 1.2 2.9 2.7 2l24.6-14.2c1.6-1.2 2.6-3.1 2.7-5.1.1-.8-.2-1.5-.8-2-2.3-.9-3.7-3.4-3.7-7.1z" fill="#fff"/><path d="m162.9 76.8c0 3.7-2.3 8.1-5.1 9.7s-5.1-.1-5.1-3.8z" fill="#fff"/><path d="m204.6 68.5 42.4-24.4-.7-6.1c-.4-3.9-2-6.6-4.2-7.9l-5.9-3.4c-2.2-1.3-5.1-1.1-8.2.7l-16.3 9.4c-6.2 3.6-11.5 12.8-12.4 21.5l-.7 6.9z" fill="#e0e0e0"/><path d="m246.3 38.3c-.4-3.9-2-6.6-4.2-7.8s-5.1-1.1-8.2.7l-16.3 9.4c-6.2 3.6-11.5 12.8-12.4 21.5l-.7 6.9 42.5-24.6z" fill="#fafafa"/><path d="m238.9 30.6c1 0 1.9.2 2.7.7 2 1.2 3.3 3.7 3.7 7.1l.6 5.5-40.2 23.2.5-5c.8-8.4 5.9-17.3 11.9-20.7l16.3-9.3c1.4-.9 2.9-1.4 4.5-1.5m0-1c-1.8 0-3.5.6-5 1.5l-16.3 9.4c-6.2 3.6-11.5 12.7-12.4 21.5l-.7 6.9 42.5-24.5-.7-6.1c-.4-3.9-2-6.6-4.2-7.8-1-.6-2.1-.9-3.2-.9z" fill="#e0e0e0"/><path d="m235 4.1c2.1 1.2 3.4 3.8 3.4 7.5 0 7.4-5.2 16.3-11.5 20-3.2 1.8-6.1 2-8.2.8l-5.8-3.4c-2.1-1.2-3.4-3.8-3.4-7.5 0-7.4 5.2-16.3 11.5-20 3.2-1.8 6.1-2 8.2-.8z" fill="#e0e0e0"/><path d="m226.8 31.6c-3.2 1.8-6.1 2-8.2.8s-3.4-3.8-3.4-7.5c0-7.4 5.2-16.3 11.5-20 3.2-1.8 6.1-2 8.2-.8s3.4 3.8 3.4 7.5c.1 7.4-5.1 16.3-11.5 20z" fill="#fafafa"/><path d="m232 4.3c.9 0 1.7.2 2.5.6 1.9 1.1 2.9 3.4 2.9 6.6 0 7-4.9 15.6-11 19.1-1.4.9-3 1.4-4.7 1.4-.9 0-1.7-.2-2.5-.6-1.9-1.1-2.9-3.4-2.9-6.6 0-7 4.9-15.6 11-19.1 1.4-.8 3.1-1.3 4.7-1.4m0-1c-1.8.1-3.6.6-5.1 1.6-6.4 3.7-11.5 12.6-11.5 20 0 3.7 1.3 6.3 3.4 7.5.9.5 1.9.8 3 .8 1.8-.1 3.6-.6 5.2-1.6 6.4-3.7 11.5-12.6 11.5-20 0-3.7-1.3-6.3-3.4-7.5-1-.5-2-.8-3.1-.8z" fill="#e0e0e0"/><path d="m409.3 293.2-4.6-1.8 1.5-3.1 2.8 2.6z"/><path d="m414.1 284.8s.2 3 .2 4-4 3.9-5 4.4l-.2-2.2c-.9 1.1-1.7 2.3-2.4 3.6-.8 1.4-1.8 3.9-4 5.7-3.2 2.6-8.2 3.9-13.3 4s-8-1.1-9.4-2.2c-1.3-.8-1.9-2.3-1.5-3.7.4-1.3 35.6-13.6 35.6-13.6z" fill="#263238"/><path d="m400.6 274.4v-1.8c-.9 0-1.1 2.5-2.4 4.7-2 3.3-4.4 6.4-7.2 9.1-5.2 4.7-9.8 7.6-12.1 9.7-3.1 2.8 2.3 7.3 10.6 6.9 4.1-.2 11.4-2.2 13.5-4.7s3.3-6.2 5-8 5.2-3.5 6.2-5.6c.6-1.2.3-3.9 0-6.3-.3-2.1-.3-5.4-1.5-5.2l-.1 1.1c-.5.9-1.6 2.5-5 3-1.8.5-6.7.6-7-2.9z" fill="#37474f"/><path d="m404.8 277.6c-1.6-.1-3.3-.7-3.9-2.1.2 1.2-.2 2.5-1.1 3.4-1.5 1.7-10.9 13.9-10.9 13.9s8.8-10 10.4-11.9c2.5-2.9 3.3-3.2 5.5-3.3z" opacity=".15"/><path d="m402.8 280.8c0 .3.3.5.6.5s.5-.3.5-.6-.3-.5-.6-.5c-.4.1-.6.3-.5.6z" opacity=".15"/><path d="m400.3 283.5c0 .3.3.5.6.5s.5-.3.5-.6-.3-.5-.6-.5c-.3.1-.5.3-.5.6z" opacity=".15"/><path d="m397.8 286.2c0 .3.3.5.6.5s.5-.3.5-.6-.2-.5-.5-.5-.5.2-.5.5c-.1 0-.1 0-.1.1z" opacity=".15"/><path d="m395.4 288.9c0 .3.3.5.6.5s.5-.3.5-.6-.3-.5-.6-.5c-.3.1-.5.3-.5.6z" opacity=".15"/><path d="m392.9 291.6c0 .3.3.5.6.4.3 0 .5-.3.4-.6 0-.3-.3-.5-.5-.4-.3 0-.5.3-.5.6z" opacity=".15"/><path d="m403.3 281s.1 0 .1-.1c.1-.1.1-.2 0-.3-1.5-1.5-3.6-2.3-5.7-2.3-.1 0-.2.1-.2.2s.1.2.2.2c2 0 3.9.8 5.4 2.2.1.1.1.1.2.1z" fill="#263238"/><path d="m400.8 283.6s.1 0 .1-.1c.1-.1.1-.2 0-.3-1.5-1.5-3.6-2.3-5.7-2.3-.1 0-.2.1-.2.2s.1.2.2.2c2 0 3.9.8 5.4 2.2.1.1.2.1.2.1z" fill="#263238"/><path d="m398.4 286.4s.1 0 .1-.1c.1-.1.1-.2 0-.3-1.5-1.5-3.6-2.3-5.7-2.3-.1 0-.2.1-.2.2s.1.2.2.2c2 0 3.9.8 5.4 2.2 0 0 .1.1.2.1z" fill="#263238"/><path d="m395.9 289h.1c.1-.1.1-.2 0-.3-1.5-1.5-3.6-2.3-5.7-2.3-.1 0-.2.1-.2.2 0 .1.1.2.2.2 2 0 3.9.8 5.4 2.2z" fill="#263238"/><path d="m393.4 291.7s.1 0 .1-.1c.1-.1.1-.2 0-.3-1.5-1.5-3.6-2.3-5.7-2.3-.1 0-.2.1-.2.2 0 .1.1.2.2.2 2 0 3.9.8 5.4 2.2.1.1.2.1.2.1z" fill="#263238"/><path d="m447.2 307.8c.7 4 1.6 6.5 3.3 8.7s4.7 2.4 7 1.9c3.7-.8 6.7-3.7 7.5-7.4.7-2.7.2-5.9-.8-9.5z" fill="#263238"/><path d="m456.1 277.4c1.1 0 2.1 5.3 3.4 10.5 1.4 5.7 3.5 8.7 4.5 12.5 1.4 5.3 1.3 7.7-.2 11.2s-9.3 7.7-13.1 3.5c-3.1-3.5-3.7-7.7-4.1-13.1-.2-4.6-.7-9.2-1.4-13.7-.7-4-1.4-7.9-.5-8.4.1.6.3 1.3.5 1.9s.5 2.6 1.1 2.5c0-.5-.1-1-.2-1.5-.1-.4-.1-.9.1-1.3.3-.4.7-.6 1.2-.7 1.1-.4 2.2-.7 3.2-.9.5-.1 1.1-.2 1.6-.3 1-.2 2-.2 2.9-.2.3.1.5.2.7.5.1.2.1.4.1.6 0 .4.1.7.3 1.1.1.1.2.3.3.3s.2-.2.1-.3c-.1-.6-.2-1.1-.3-1.9 0-.3-.2-.8-.2-1.2s0-.8 0-1.1z" fill="#37474f"/><path d="m460 302.2c0 .2-.1.4-.3.5-.2 0-.4-.1-.5-.3 0-.2.1-.4.3-.5.3 0 .5.1.5.3z" opacity=".15"/><path d="m459.2 298.5c0 .2-.1.4-.3.5s-.4-.1-.5-.3.1-.4.3-.5.5.1.5.3z" opacity=".15"/><path d="m458.5 295.1c0 .2-.1.4-.3.5-.2 0-.4-.1-.5-.3s.1-.4.3-.5.4.1.5.3z" opacity=".15"/><path d="m457.7 291.7c0 .2-.1.4-.3.5-.2 0-.4-.1-.5-.3 0-.2.1-.4.3-.5.3-.1.5.1.5.3z" opacity=".15"/><path d="m449 293.3c0 .2-.1.4-.3.5-.2 0-.4-.1-.5-.3 0-.2.1-.4.3-.5.2-.1.4.1.5.3z" opacity=".15"/><path d="m449.7 296.7c0 .2-.1.4-.3.5-.2 0-.4-.1-.5-.3 0-.2.1-.4.3-.5.3 0 .5.1.5.3z" opacity=".15"/><path d="m450.5 300.2c0 .2-.1.4-.3.5s-.4-.1-.5-.3.1-.4.3-.5.5.1.5.3z" opacity=".15"/><path d="m451.3 303.8c0 .2-.1.4-.3.5-.2 0-.4-.1-.5-.3 0-.2.1-.4.3-.5.3 0 .5.1.5.3z" opacity=".15"/><path d="m454.8 305.2-6.1-25.6 1.5-.1z" opacity=".15"/><path d="m459.7 302.5c-2.7-.3-7.1.5-8.7 1.6-.1.1-.2 0-.3-.1s0-.2.1-.3c1.7-1.1 6.1-1.9 8.9-1.6.1 0 .2.1.2.2 0 .1-.1.2-.2.2z" fill="#263238"/><path d="m458.9 298.8h-.1c-2.1-.7-6.7.4-8.6 1.6-.1.1-.2 0-.3-.1s0-.2.1-.3c1.9-1.2 6.7-2.4 8.9-1.6.1 0 .2.1.1.2 0 .2 0 .2-.1.2z" fill="#263238"/><path d="m458.1 295.4h-.1c-2.1-.7-6.7.4-8.6 1.6-.1.1-.2 0-.3-.1s0-.2 0-.3c1.9-1.2 6.7-2.4 8.9-1.6.1 0 .2.1.1.2.1.1.1.2 0 .2z" fill="#263238"/><path d="m457.4 292h-.1c-2.1-.7-6.7.4-8.6 1.6-.1.1-.2 0-.3-.1s0-.2.1-.3c1.9-1.2 6.7-2.4 8.9-1.6.1 0 .2.1.1.2 0 .1-.1.2-.1.2z" fill="#263238"/><path d="m450 147.1c2.6 32.9 4.2 77.8 4.2 77.8.2 2.5 2.6 13.2 3.9 25.5 1.3 13 2.3 37.4 2.3 37.4s-9.1 4.9-16.5 2.4c0 0-7.9-41-11.7-56.4-3.6-14.5-9.2-42-9.2-42l-3.8 27.2s.5 9.4.2 15.9c-.3 7.6-5.2 44.3-5.2 44.3s-9.9 5.8-17.5 0c0 0-1.3-50.6-1.5-59.8-.4-18 1.7-52.9 2.3-76.2z" fill="#263238"/><path d="m436.6 185c.7 7.9 1.4 15.8 2.3 23.6.4 3.9.9 7.9 1.3 11.8l.7 5.9.4 3c.1 1 .3 1.9.5 2.9 1.3 7.8 3.3 22 4.7 29.8s2.9 15.6 4.5 23.3c-1-7.9-2.2-15.7-3.4-23.5s-3.1-22-4.5-29.8c-.1-1-.4-1.9-.5-2.9l-.4-2.9-.7-5.9c-.5-3.9-1-7.8-1.5-11.8-1-7.8-2.2-15.7-3.4-23.5z"/><path d="m400.2 182.8c-.8 7.4-1.3 14.8-1.6 22.2s-.6 14.8-.3 22.2.4 19.8.6 27.2.6 14.8 1 22.2c.1-7.4.1-14.8.1-22.2s-.2-19.8-.3-27.2l-.1-5.5v-1.4-1.4-2.8l.1-11.1.2-11.1c.1-3.7.2-7.4.3-11.1z"/><path d="m423 191.8-3.2-18s-8.9-1.3-13.5-5.4c0 0 3 5.4 11.4 7.6l3.2 15.9-1.6 27.1z"/><path d="m384.2 90.8c.1-1.6.8-2.8 2.7-4.1 1.5-.9 2.8-2 3.8-3.4 1.2-1.7 2.4-3.3 3.9-4.8 1.1-.9-.2-2.1-2.1-1.9s-6.1 2.3-7.1 4.6c-1.2 3.1-1.6 6.4-1.2 9.6z" fill="#f28f8f"/><path d="m408.5 83.4c-4.3.3-9.5.3-13.9 8.6-4.6 8.5-8.4 15.2-8.4 15.2-.9-3.9-1.5-7.9-1.8-11.9-.4-5.9-.2-8.5 1.7-11.9 2.7-3.7 5-7.5 7.2-11.6-3.3.2-6.6.6-9.8 1.3-.5.1-1 .4-1.2.9-.2.3-.2.7-.3 1.1-.3.5-.7.8-1.2 1-1 .5-2.1.9-2.6 1.9-.3.6-.2 1.2-.5 1.8-.5.9-1.2 1.6-2 2.2-.8.9-1.2 2-1.4 3.1-1.5 6.1-1.9 12.2-1.9 21.7 0 6.5.4 15.5 2.6 20.4s6.7 10.5 13.3 3.9 18.1-25 18.1-25z" fill="#ffa8a7"/><path d="m386.8 82.2c-1.1.4-2.1 1-3.1 1.8.5 1 .5 2.3 0 3.3-.8 2-2.3 2.8-1.9 4.7 0-1.3.6-2.4 1.8-3 2.2-1.3 3.4-5.6 3.2-6.8z" fill="#f28f8f"/><path d="m408 83.1c-4.1.4-8.3.7-12.3 6.2s-9.7 17.2-9.7 17.2l.1.7s3.3 4.2 4 12.6c.4 4.9-1.2 9.7-4.5 13.3-.6.4-1.3.6-2 .8 0 0 1.6 1.2 4-.5s20.8-28 20.8-28z" fill="#37474f"/><path d="m385.9 106 .2 1.2s2.2 7.6-.6 13.3-6.8 6.3-8.8 6.2c-2.3-.2-3-3-3-3l-.4-2c-.6.5-.8 1.3-.5 2 .9 2.4 1.9 4.7 3.1 7 1.3 2.3 5.5 5.6 9.1 3.6s5.9-6.9 5.9-13.5-1.5-10.7-2.5-12.1-2.8-4.4-2.8-4.4z" fill="#263238"/><path d="m448.2 87.8s4.9 4.4 3.6 16.3c-1.1 10.4-1.7 19.1-1.8 23.1-.2 6.2.7 27.2.7 27.2-8.9 11.5-48.6 9.9-53.8-.1 0 0 .3-14.3.3-28.1 0-10.1.9-19.4 2.1-25.3 1.7-8 4.4-13.4 6.1-15l13.1-3.6 12-.6z" fill="#455a64"/><path d="m445.5 19.7c1.2-2 .6-4.6-1.4-5.8s-4.6-.6-5.8 1.4l-2.2 3.6c-.3.7-.3 1.5.1 2.1 1.1 1.8 3 2.9 5 3.1.7.1 1.5-.2 2-.8z" fill="url(#G)"/><path d="m441.3 24.1c.7.1 1.5-.2 2-.8l2.2-3.6c.8-1.2.8-2.8.2-4.1.4 1.1-.7 2.8-1.9 4.8s-2.7 2.9-5.7 1.2c-2.2-1.2-1.9-2.6-1.6-3.2l-.2.4c-.3.7-.3 1.5.1 2.1 1 1.9 2.8 3.1 4.9 3.2z" fill="url(#H)"/><path d="m445.2 37c3.8-6.1 1.9-14.2-4.2-17.9s-14.2-1.9-17.9 4.2c-1 1.6-.9 3.9.5 6.5 2.8 5.2 9.8 9.5 15.7 9.7 2.8.1 4.9-.9 5.9-2.5z" fill="url(#I)"/><path d="m444.8 30.4c-2.8-5.2-9.8-9.5-15.7-9.7-2.9-.1-5 .9-6 2.5l-48.8 79.1c-1 1.6-.9 3.9.5 6.5 2.8 5.2 9.8 9.5 15.7 9.7 2.9.1 5-.9 6-2.5l48.7-79c1-1.7 1-4-.4-6.6z" fill="url(#J)"/><path d="m444.8 30.4c-2.8-5.2-9.8-9.5-15.7-9.7-2.9-.1-5 .9-6 2.5l-48.8 79.1c-1 1.6-.9 3.9.5 6.5 2.8 5.2 9.8 9.5 15.7 9.7 2.9.1 5-.9 6-2.5l48.7-79c1-1.7 1-4-.4-6.6z" fill="url(#J)" opacity=".2"/><path d="m387.7 123.6c-6-.2-13.2-4.6-16.1-9.9-1.4-2.7-1.5-5-.5-6.7l3.8-6.1c1-1.7 3.2-2.7 6.2-2.6 6 .2 13.3 4.6 16.1 9.9 1.4 2.7 1.5 5 .5 6.7l-3.8 6.1c-1 1.7-3.2 2.7-6.2 2.6z" fill="url(#K)"/><path d="m387.7 123.6c-6-.2-13.2-4.6-16.1-9.9-1.4-2.7-1.5-5-.5-6.7l3.8-6.1c1-1.7 3.2-2.7 6.2-2.6 6 .2 13.3 4.6 16.1 9.9 1.4 2.7 1.5 5 .5 6.7l-3.8 6.1c-1 1.7-3.2 2.7-6.2 2.6z" fill="url(#K)" opacity=".35"/><path d="m377.3 104.3c6 .2 13.2 4.6 16.1 9.9 1.4 2.7 1.5 5 .5 6.7s-3.2 2.7-6.2 2.6c-6-.2-13.2-4.6-16.1-9.9-1.4-2.7-1.5-5-.5-6.7s3.2-2.7 6.2-2.6z" fill="url(#L)"/><path d="m377.3 104.3c6 .2 13.2 4.6 16.1 9.9 1.4 2.7 1.5 5 .5 6.7s-3.2 2.7-6.2 2.6c-6-.2-13.2-4.6-16.1-9.9-1.4-2.7-1.5-5-.5-6.7s3.2-2.7 6.2-2.6z" fill="url(#L)" opacity=".15"/><path d="m327.8 180.6c.9-1.5 2.8-2.3 5.4-2.2 5.2.1 11.5 4 14 8.6 1.2 2.3 1.3 4.4.4 5.8l-3 2.9c-1.2 1.1-2.8 1.6-4.4 1.4-5.3-.4-10.1-3.4-12.9-7.9-.9-1.4-1.1-3-.7-4.6z" fill="url(#M)"/><path d="m327.8 180.6c.9-1.5 2.8-2.3 5.4-2.2 5.2.1 11.5 4 14 8.6 1.2 2.3 1.3 4.4.4 5.8l-3 2.9c-1.2 1.1-2.8 1.6-4.4 1.4-5.3-.4-10.1-3.4-12.9-7.9-.9-1.4-1.1-3-.7-4.6z" fill="url(#M)" opacity=".15"/><path d="m333.2 178.4c5.2.1 11.5 4 14 8.6 1.2 2.3 1.3 4.4.4 5.8l44-71.4c.9-1.5.8-3.5-.4-5.8-2.5-4.6-8.7-8.4-14-8.6-2.6-.1-4.5.8-5.4 2.2l-44 71.4c.9-1.4 2.8-2.3 5.4-2.2z" fill="url(#N)"/><path d="m344.2 196c.8-1.3.8-3.1-.4-5.2-2.7-4.4-7.4-7.3-12.6-7.7-2.3-.1-4 .7-4.8 2-2.8 4.6-8.3 18.4-7.6 25.3l.1.1c0 .4.1.7.3 1.1 1 1.6 2.7 2.7 4.7 2.8.4 0 .7 0 1-.2 6.5-2.4 16.5-13.7 19.3-18.2z" fill="url(#O)"/><path d="m391.1 115.6c-.5-.9-1-1.7-1.7-2.4l-44 71.4c.6.7 1.2 1.5 1.7 2.4.1.1.1.3.2.4l44-71.4c-.1-.1-.1-.2-.2-.4zm7.1-4.5c0-.2-.1-.5-.2-.7 0 0 38.1-61.8 43.4-70.4 5.7-9.2 5.7-13.1 3.6-16.9 1.2 3.8-4 12.2-4.7 13.3l-43.7 71c.2.3.4.6.5.9l-3.7 6.1c.5.9.8 1.9 1 2.9zm-76.4 102.8 2.3-1s1.7.2 6.6-4.3 7.9-9.4 13.1-17.8c-.5-1-1.2-1.9-2-2.7 0 .1-5.8 11.3-13.1 19.3-2.2 2.4-4.6 4.5-7.2 6.4.1 0 .2.1.3.1z" fill="url(#P)" opacity=".2"/><path d="m320.6 210.8-1.8 2.9c-.8 1.3-2.1 4.9-1 5.6s3.7-2.1 4.5-3.4l1.8-2.9s0-.8-1.4-1.6-2.1-.6-2.1-.6z" fill="url(#Q)"/><path d="m319.1 219.1c-.1-.7-.8-1.2-1.6-1.1h-.1c-.1.6.1 1.1.4 1.3s.8.1 1.3-.2z" fill="url(#R)"/><path d="m393.2 71.8c1.1 0 3.2 1.2 4.8 2.2s3.1 1.1 2.6 2.3c-.5.7-1.3 1.1-2.1 1-.9 0-1.8-.2-2.6-.5 1.9 1.6 2.3 2.3 1.8 2.9-.8.8-2.2.7-3.4.2.6.7 1.4 1 1 1.7s-1.5.8-2.9.6c-.9-.2-1.7-.4-2.5-.9-1.5.4-3.1 1-3.1 1 1.5-3.9 3.6-7.4 6.4-10.5z" fill="#ffa8a7"/><path d="m394.2 79.9c-.8-.4-1.5-1-2.3-1.5-.8-.4-1.7-.5-2.6-.3-.9.1-1.8.3-2.7.4s-1.8.3-2.7.4c.9-.2 1.8-.5 2.7-.7s1.8-.4 2.7-.5c.5-.1.9-.1 1.4-.1s1 .2 1.4.5c.7.6 1.4 1.2 2.1 1.8z" fill="#f28f8f"/><path d="m395.8 76.9c-.7-.4-1.4-.9-2.1-1.3-.3-.2-.7-.4-1.1-.6-.4-.1-.8-.1-1.2-.1-.8 0-1.6.2-2.5.2s-1.6.2-2.5.3c.8-.2 1.6-.4 2.4-.5.8-.2 1.6-.3 2.5-.3.4 0 .9 0 1.3.2s.7.4 1.1.6c.8.4 1.5.9 2.1 1.5z" fill="#f28f8f"/><path d="m434 76.8c.8-4 4.9-8 6.7-11.4s2.9-5.9 2.8-9c0-1.9-.7-3.8-2.1-5.1.4-6.8-6.5-10.3-11.1-11.5-5.3-1.5-9.7-1.7-15.3.5-3.1 1.2-5.5 3.5-6.9 6.5-.8 2.1-1.1 4.3-.9 6.5.1.4.3.8.6 1.2.2.2.1.7.2.9.1.6.3 1.2.6 1.8.6.9 1.3 1.6 2.2 2.1 2.9 1.5 6.1 2 9.3 2.8l3.7.9c.2 0 1.3.2 1.5.3z" fill="#263238"/><path d="m438.8 71.8c-1.4 1-3.4.9-4.7-.3l.7 12c-2.4 5.4-8.8 3.1-16.3 12.4 0 0-2.4-3.9-.4-11.6l-.4-4c-1.6 0-3.2-.1-4.7-.3-3.3-.5-5-3.5-6-7.9-.9-3.9-.9-8-.1-12 .2-1.1.3-2.2.3-3.3-.2-2.4.2-4.8 1.2-7 3.5-2.7 11.5-3.4 18.7 1.3-1 4.4.6 7.9 3.8 9.7-.2 1.2-.4 4.2 1.5 4.2 1.4 0 1.5-1.8 3-3.3s4.9-1.8 6.1.5c1.6 3.4.5 7.5-2.7 9.6z" fill="#ffa8a7"/><path d="m417.8 80.2c5-.4 8.9-.9 11.5-4.4 1.3-1.8 2.3-3.8 3.1-5.8-.4 2.5-1.2 5-2.3 7.3-1.3 2.2-4.5 4.2-12.2 4.7z" fill="#f28f8f"/><path d="m417.1 57.4-6.9 8 5.7 1.9z" fill="#f28f8f"/><path d="m420.8 55.8 2.9 1.7c.5-.8.2-1.9-.6-2.4-.8-.4-1.8-.2-2.3.7z" fill="#263238"/><path d="m408.9 56.7 3.1-1.4c-.3-.8-1.3-1.3-2.1-.9h-.1c-.9.5-1.3 1.5-.9 2.3z" fill="#263238"/><path d="m420.3 60.4c-.1.8.4 1.5 1.2 1.6.8.1 1.5-.4 1.7-1.2.1-.8-.4-1.5-1.2-1.7-.8-.1-1.6.4-1.7 1.3 0-.1 0 0 0 0z" fill="#263238"/><path d="m421.5 69.6-5.7.8c.3 1.6 1.7 2.7 3.3 2.5 1.5-.2 2.6-1.6 2.4-3.1 0-.1 0-.1 0-.2z" fill="#b16668"/><path d="m417.5 72.6c.6-1.6 2.3-2.6 3.9-2.2-.1 1.3-1.1 2.3-2.4 2.5-.4.1-1 0-1.5-.3z" fill="#f28f8f"/><path d="m411.2 58.4c-.8-.1-1.5.5-1.6 1.3s.5 1.5 1.3 1.6 1.5-.5 1.6-1.3c0 0 0 0 0-.1 0-.7-.6-1.4-1.3-1.5" fill="#263238"/><path d="m418.6 95.9c1-.7 1.9-1.4 2.7-2.3 1.2-1.3 1.8-1.9 2.2-1.4 1.2 1.7 2.3 3.5 3.1 5.3.5 1.2.4 1.2 2.1.1 2.9-1.9 5.4-4.3 7.4-7.1 1.3-1.8 2.2-3.8 2.9-5.9 0 0-1.9-2.6-2.4-3.6-1-1.9-1-2.7-2.1-2.5v1.3c-.2 1.7-2.5 3.1-4.9 5.1s-6 3.9-6.9 4.8c-.6.7-4.1 6.2-4.1 6.2z" fill="#37474f"/><path d="m412 94.7c.3.7 2.4-4.6 3.5-4.5.5 0 1.5 2.7 2 3.6s.8 1.4 1.2 2.1c-.6-1.6-.8-5.7-.9-6.7 0-1.6.1-3.3.5-4.9l-.4-4c-.3 0-.6 0-1 0-.5.5-1 1.1-1.5 1.7-1 1.7-2.9 4.7-3.3 6.8-.4 1.9-.4 3.9-.1 5.9z" fill="#37474f"/><path d="m446.1 87.1c7.5 2.4 12.4 3.5 15.1 9.1s7.3 19.3 9.8 27.7c2.2 7.2 3.3 13.6 1.7 16.9l-15.8-5.7-8.6-22.4s-7.2-17.9-2.2-25.6z" fill="#37474f"/><path d="m454.9 124c1.4 1.7 2.9 2.4 6.3 3.7 3.1 1.3 6.7 2.4 8.8 5.6-.7-3-2.5-4.5-6.4-6.4s-9.6-4.2-9.6-4.2z" fill="#263238"/><path d="m454.9 124c1.4 1.7 2.9 2.4 6.3 3.7 3.1 1.3 6.7 2.4 8.8 5.6 1.8 2.8 3.7 5.2 2.7 7.4-.6 1.5-4.9 2.7-8.9 2.6s-7-3.2-11.2-5.9c-3.6-2.3-5.5-3.8-5.5-3.8z" fill="#ffa8a7"/><path d="m448.3 128.2c1.5-1.5 1.8-3 4-4.3s3.6-1.2 6-2.4 4.3-1.8 6.1-1.2 1.5 1.6.2 2.4-3.6 2-5.2 3.1-3.1 1.8-3.1 3.9c.1 3.2.3 6.4.7 9.6.4 3.4 1.1 6.1.9 6.5s-1.7.5-2.6-1.4-2.1-8.8-2.1-8.8-.7 4.8-.9 8.1-.4 5.8-.5 6.5-2.4.2-2.8-2.3.1-9.9.1-9.9-1.9 3.4-3.2 5.5-2.8 5.1-3.3 5.9-2-.6-1.6-2.5 2.9-6.8 2.9-6.8-3.1 3.2-3.6 3.5-2.2.1-1.6-2.1c.4-1.4 1.3-2.4 3.8-5.2s2.4-4 3.2-5.3c.7-1.7 1.5-1.7 2.6-2.8z" fill="#ffa8a7"/><path d="m464.3 120.2c.3.1.6.3.8.4.3.2.4.5.3.8-.3.6-.8 1-1.3 1.2l-3.4 1.9c-.6.3-1.1.7-1.7 1.1-.5.4-1.1.7-1.6 1.1-.6.4-1 .9-1.4 1.5-.3.6-.4 1.3-.3 2 .1 2.6.3 5.2.6 7.8.2 1.3.4 2.6.6 3.9l.4 1.9c.2.6.2 1.3.2 1.9.1-.6.1-1.3-.1-1.9l-.3-1.9c-.2-1.3-.4-2.6-.5-3.8-.2-2.6-.5-5.2-.5-7.7-.1-.6 0-1.2.2-1.8.3-.5.7-1 1.2-1.4s1-.7 1.6-1.1 1-.7 1.6-1.1l3.3-2c.6-.3 1.1-.8 1.3-1.4.1-.3-.1-.7-.4-.9 0-.2-.3-.4-.6-.5z" fill="#f28f8f"/><path d="m454.4 129.4c-2.5 1.1-4.9 0-5.2-.6.2 1.6 3.5 2.6 5.2.6z" fill="#f28f8f"/><path d="m438.4 142.7c.5.4 1.1.3 1.5-.1.6-.5 2.1-2.2 2.8-3s3.1-3.6 3.1-3.6l-2.1 4.1s-3.1 3.2-3.6 3.5c-.6.3-1.3 0-1.6-.6 0-.1-.1-.2-.1-.3z" fill="#f28f8f"/><path d="m392.5 14c3.7 3.7 5.9 8.7 6.1 13.9v2.4c-.9 11.4-10.8 19.9-22.1 19-10.1-.8-18.2-8.8-19-18.9l-.1-2.4c.4-11.4 9.9-20.4 21.3-20 5.1.2 10.1 2.4 13.8 6z" fill="#fff"/><path d="m362 12.9c-8.8 8.7-8.8 22.9-.1 31.7 7.8 7.8 20.1 8.8 29.1 2.3l6.4 2.8c.7.3 1.4 0 1.7-.7.1-.3.1-.7 0-1.1l-2.9-6.4c7.1-10.1 4.8-24.1-5.3-31.2-9-6.3-21.2-5.2-28.9 2.6zm30.4 1.1c3.7 3.7 5.9 8.7 6.1 13.9v2.4c-.9 11.4-10.8 19.9-22.2 19-10.1-.8-18.1-8.7-19-18.8l-.1-2.4c.3-11.4 9.8-20.4 21.2-20.1 5.3.2 10.3 2.3 14 6z" fill="#455a64"/><path d="m374.9 39.9c-.9 0-1.7-.4-2.2-1l-7-7.5c-1.2-1.2-1.1-3.2.1-4.4s3.2-1.1 4.4.1l4.5 4.8 10.7-13.6c1-1.4 3-1.6 4.3-.6 1.4 1 1.6 3 .6 4.3 0 0-.1.1-.1.1l-12.9 16.4c-.5 1-1.4 1.4-2.4 1.4z" fill="url(#S)"/></svg>